<mxfile host="app.diagrams.net" modified="2023-07-30T18:22:45.301Z" agent="Mozilla/5.0 (Windows NT 10.0; Win64; x64) AppleWebKit/537.36 (KHTML, like Gecko) Chrome/115.0.0.0 Safari/537.36 Edg/115.0.1901.188" etag="n4PYMkf3qEPBoXVyWfZs" version="21.6.6" type="device">
  <diagram name="Page-1" id="hZLpaW7RP1-YjXbdWXuW">
    <mxGraphModel dx="1266" dy="746" grid="1" gridSize="10" guides="1" tooltips="1" connect="1" arrows="1" fold="1" page="1" pageScale="1" pageWidth="850" pageHeight="1100" math="0" shadow="0">
      <root>
        <mxCell id="0" />
        <mxCell id="1" parent="0" />
        <mxCell id="pDYT36NPA37f6bBZ9I-m-1" value="" style="shape=image;verticalLabelPosition=bottom;labelBackgroundColor=default;verticalAlign=top;aspect=fixed;imageAspect=0;image=data:image/png,iVBORw0KGgoAAAANSUhEUgAAAh0AAANTCAYAAAAKRa9PAAAAAXNSR0IArs4c6QAAIABJREFUeF7svX+MXtV57/t4Yqa2axO7w5HrcIosbio7/8RXUf6IBNS6iQS0cmWJkUJ0wBwjisBA8OCS9J5gfgRMbwNcM6aAoTQHnxpOC9JYtWq1OFLotQCpqiJUR6qC1V4u4dZxfQ8TOx7HnjNY46u14zVes/z+WM9+997vWuv9vFJiZmb9eNbnu/ezv+9aa++94Ld/+7f/n3/5l39ZLXwgAAEIBBL4/Oc/f+5f//VfFwYWpxgEIAAB+e3f/u2PFojI+fPnz4MDAhCAQDCBBQsWmMQRXJ6CEIAABEzewHRwHEAAAmoCmA41MipAYOAJYDoG/hAAAATKEcB0lONGLQgMMgFMxyCrz9gh0AMBTEcP8KgKgQElkL3peP311+XWW2+Vu+66S5599llZvHixWuonnnhCHnnkEXn88cfl4Ycf7lp/cnJSbrnlFjl48KC8++67cs0113StU1eBJmOxrPs95rpYhrT73nvvybXXXis33HCDGB4jIyMh1ZIsg+lIUrZkgz5y5IjcfPPNRfxvvPGGrFmzJtmxDHLgyZmOs2fPygMPPCAvv/yyrFu3ruvBl4LpsDGGmhrNAduU6bC6fPTRR20vtm4s/hhCjYq9qPdiIjX8tGUxHVpilG+KgHv+pWiKMR1NHSn19pOc6bAH3uHDhwsyr732WjGr0O5ThemoVwIpLtJmNiZl02F1+da3vtVWD5v0/v3f/72rWWzHHNNR99EY3j4zHeGsYihpzx0bS6jRjyF2EwOmIxYleosjOdNhL9B22P43XncmxEVjy3388cdzU3T33HNPsexiPuaCb362yyLuNwF/ecU1Mpdffrk8/fTTRRv2JG41u+Cf8NYwmX+N4XA/Jpavf/3rl8Tp/t6aLlPP/9bSqq928Znf+zNGdrzGQJw6dUr+4R/+oatJMHUmJiY6lutmOlxuZibrxRdfFDNOq937779fLF34upolrzvuuKNYzrL1vvKVrxTLaeZjZ8b8ZNutP7MU5x9v9lhxl9ksLzcuVxPfKLt/axWDjb3MUmBv6UBXG9Oh49Xv0v5x6n/JsX+//vrr5fjx48W55+YGey64f3fzij8+P2/a8+A3f/M3i/NqyZIlc+dmq9zp5ybXdPi5O2TZu9/86f9XBJIyHa6h+Ou//mvZvXu3+N+aOxkEcxGypsOcUO2MhrnYmT0cdhalXZv2hDP/uuv45md3T8cVV1xRGAh7svnr/K1mOvwLVauLnfmd/83fNVVm3dP07caydu3a4mfLzf+72X/iJ6duy1j2wrl69eqO+2Y0psMYjSeffFIeeuihwkhYLVrNdLRatjH1rRnxx9pq7O36a5dIbTz+TJo1RtZYfPLJJ/O0tz+bdn19bF+xLh35LDAd6VxG3HPvu9/9rjz66KOX5CN73vsm3/68b9++4gtSu2Pbz2v+uep+aTAmw+YiQ9GcR+3OFZs37d9t7n7wwQcvMS3pKDK4kSZlOvz1ct8ctLqo+RcF/6J81VVXXXLg+iYg1Mi0upCYk8uaEvNvq+WgTqbDtulummplSPzEYL/F+LMuNhb3wtZtvN1OD6tLt+nadns6bBLzzZprgOx4upkONwa/rGnfznoYHW688cZLNvy22jTcarbD1L/pppsuOXb8Y/Stt966ZOnM9tEuhm68Y/k7piMWJbrH4eZB18y750u7mQmbg370ox/N25R/5syZjhvm/Xz85ptvytGjR8Xs+9q0aZN8+ctfLgy5ndmzpqZd7rJf3tycqN3k350UJeomkJTp8A8wP8H73yLNhToG09Fq9sDOkpi/aUxHuzHbE/eZZ56Zd6eNbzrMCe/fzeMz8tvodBCGbCC19TUzHTYZttPcNU3tNsu2Mgs2llDT0c5wtqvfzhi7U9lum+6SXjfTVncy0LaP6dAS6095d4a43QydWcrzj3X/fPVNh2vi2x27ts0f/OAHxfLrddddJx9++GFhPkZHR8Us1fgzyq0omfZbmY4698P1R638e03GdHS688FewDsdlK32dJjp7SZmOvxbZv0TRWM62n0bCTUdVc902FkXk0C6ras2bTq6bTptZVa6GQKrVajpYKYj/yQa+whbzYzamN2l06pnOkwf9nzZuXOn/OM//qM89thjYszL3r17xSzHuvvFuhmIVhtJmemI/ei7NL5kTEe7WxHdg85d42vn6PuxvOKbjm7LNeZbR7ud2u0Mi78O227Jwt/TYU2Xe/JrTmQTj9lIG3LffJWmo91mTPcbV6cZEJPwLAv3eSrtjifT7pe+9KV5yzNmb0zo7Jtdl7ZLSDYh259jeKaLNn0x06El1p/yre7gazX70S4v2Vm6dvuXOu1Bcg2PvxfE3STeKeeZvXi/93u/V8Bzn9Nh96P1cjdcfxQZ7F6TMR3tLoS+GXGTuCttP2c67JKGG4873e7fcePfveJe0P2y5g4TM3Xp3vHQblkhZIe4iTHUdIRuIPWXV8wF1v+4G8vamQA7k+JudHU3jLa6cLe7mym0Pzdpmm+FZjrYmCxratu1X+buFZZXBjsZ1zH6VubC9tNuWbVV3mx3J1e35324/dscbNq3e6v8O2hazWjb2RhrOtw79+wsdz8fwFiHbjm3mYzpyFmEVMdmDV+3Z6WkOj7i7kyAmY68jpBuXzZSeOZRXorkORpMR5661j4qzQbS2oOhg74QwHT0BXttnWI6akNLww4BTAeHAwQgUIoApqMUNipBYKAJYDoGWn4GD4HyBDAd5dlREwKDSgDTMajKM24I9EgA09EjQKpDYAAJYDoGUHSGDIEqCGA6qqBIGxAYLAKYjsHSm9FCoDICmI7KUNIQBAaGAKZjYKRmoBColgCmo1qetAaBQSBQmI7ly5efOHny5PJBGDBjhAAEqiGwfPny8ydPnlxQTWu0AgEIDAKBFStWFEnjvHnN/SAMmDFCAAKVESBvVIaShiAwMATOYzoGRmsGCoFKCWA6KsVJYxAYCAKYjoGQmUFCoHoCmI7qmdIiBHIngOnIXWHGB4GaCGA6agJLsxDImACmI2NxGRoE6iSA6aiTLm1DIE8CmI48dWVUEKidAKajdsR0AIHsCGA6spOUAUGgGQKYjmY40wsEciKA6chJTcYCgQYJYDoahE1XEMiEAKYjEyEZBgSaJoDpaJo4/UEgfQKYjvQ1ZAQQ6AsBTEdfsNMpBJImgOlIWj6Ch0D/CGA6+seeniGQKgFMR6rKETcE+kwA09FnAegeAgkSwHQkKBohQyAGApiOGFQgBgikRQDTkZZeRAuBaAhgOqKRgkAgkAwBTEcyUhEoBOIigOmISw+igUAKBDAdKahEjBCIkACmI0JRCAkCkRPAdEQuEOFBIFYCmI5YlSEuCMRLANMRrzZEBoGoCWA6opaH4CAQJQFMR5SyEBQE4ieA6YhfIyKEQGwEMB2xKUI8EEiEAKYjEaEIEwIREcB0RCQGoUAgJQKYjpTUIlYIxEEA0xGHDkQBgeQIYDqSk4yAIdB3ApiOvktAABBIkwCmI03diBoC/SSA6egnffqGQMIEMB0Ji0foEOgTAUxHn8DTLQRSJ4DpSF1B4odA8wQwHc0zp0cIZEEA05GFjAwCAo0SwHQ0ipvOIJAPAUxHPloyEgg0RQDT0RRp+oFAZgQwHZkJynAg0AABTEcDkOkCAjkSwHTkqCpjgkC9BDAd9fKldQhkSwDTka20DAwCtRHAdNSGloYhkDcBTEfe+jI6CNRBANNRB1XahMAAEMB0DIDIDBECFRPAdFQMlOYgMCgEMB2DojTjhEB1BDAd1bGkJQgMFAFMx0DJzWAhUAkBTEclGGkEAoNHANMxeJozYgj0SgDT0StB6kNgQAlgOgZUeIYNgR4IYDp6gEdVCAwyAUzHIKvP2CFQjgCmoxw3akFg4AlgOgb+EAAABNQEMB1qZFSAAAQMAUwHxwEEIKAlgOnQEqM8BCBQEMB0cCBAAAJaApgOLbHMy18jIv9JRG4Qkf8oIr8mIv9TRP5NRA6KyH8XkfcyZ8DwwghgOsI4UQoCELhIANPB0VAQWCciz1/4d1kHJlMiclhE7rvwL/gGlwCmY3C1Z+QQKEsA01GWXEb1bhOR/1ZiPP9ZRP6iRD2q5EEA05GHjowCAk0SwHQ0STvCvozh2C0iS0rEdkZEtmA8SpDLowqmIw8dGQUEmiSA6WiSdmR9mSWVf6ogpv+VpZYKKKbXBKYjPc2IGAL9JoDp6LcCfez/HRG5toL+3xWR6ypohybSIoDpSEsvooVADAQwHTGo0IcYzF0qfycinTaNhoZlNpf+Lne1hOLKphymIxspGQgEGiOA6WgMdVwdvSAi91QY0osicm+F7dFU/AQwHfFrRIQQiI0ApiM2RRqK519F5H+psK//W0Q+X2F7NBU/AUxH/BoRIQRiI4DpiE2RhuKZvvDgr6q6Mw8QW1RVY7STBAFMRxIyESQEoiKA6YhKjuaCMReMqj8Lqm6Q9qImgOmIWh6Cg0CUBDAdUcpSf1DMdNTPOPceMB25K8z4IFA9AUxH9UyTaJE9HUnIFHWQmI6o5SE4CERJANMRpSz1B8XdK/Uzzr0HTEfuCjM+CFRPANNRPdMkWuQ5HUnIFHWQmI6o5SE4CERJANMRpSzNBMUTSZvhnGsvmI5clWVcEKiPAKajPrbRt8y7V6KXKOoAMR1Ry0NwEIiSAKYjSlmaC4q3zDbHOreeMB25Kcp4IFA/AUxH/Yyj78EYj/9WIsr/zGvtS1DLpwqmIx8tGQkEmiKA6WiKdOT9mKWW50XE/NvpJXDm5W6HReQ+XmcfuaL1h4fpqJ8xPUAgNwKYjtwU7XE85q6W/yQiN4jIf7zwqHTziPN/E5GDIvLfeZtsj4TzqY7pyEdLRgKBpghgOpoinWg/XFgSFa6BsDk2GoBMFxDIjACmIzNBqx4OF5aqiebTHsdGPloyEgg0RQDT0RTpRPvhwpKocA2EzbHRAGS6gEBmBDAdmQla9XC4sFRNNJ/2ODby0ZKRQKApApiOpkgn2g8XlkSFayBsjo0GINMFBDIjgOnITNCqh8OFpWqi+bTHsZGPlowEAk0RwHQ0RTrRfriwJCpcA2FzbDQAmS4gkBkBTEdmglY9HC4sVRPNpz2OjXy0ZCQQaIoApqMp0on2w4UlUeEaCJtjowHIdAGBzAhgOjITtOrhcGGpmmg+7XFs5KMlI4FAUwQwHU2RTrQfLiyJCtdA2BwbDUCmCwhkRgDTkZmgVQ+HC0vVRPNpj2MjHy0ZCQSaIoDpaIp0ov1wYUlUuAbC5thoADJdQCAzApiOzAStejhcWKommk97HBv5aMlIINAUAUxHU6QT7YcLS6LCNRA2x0YDkOkCApkRwHRkJmjVw+HCUjXRfNrj2MhHS0YCgaYIYDqaIp1oP1xYEhWugbA5NhqATBcQyIwApiMzQaseDheWqonm0x7HRj5aMhIINEUA09EU6UT74cKSqHANhM2x0QBkuoBAZgQwHZkJWvVwuLBUTTSf9jg28tGSkUCgKQKYjqZIJ9oPF5ZEhWsgbI6NBiDTBQQyI4DpyEzQqofDhaVqovm0x7GRj5aMBAJNEcB0NEU60X64sCQqXANhc2w0AJkuIJAZAUxHZoJWPRwuLFUTzac9jo18tGQkEGiKAKajKdKJ9sOFJVHhGgibY6MByHQBgcwIYDoyE7Tq4XBhqZpoPu1xbOSjJSOBQFMEMB1NkU60Hy4siQrXQNgcGw1ApgsIZEYA05GZoFUPhwtL1UTzaY9jIx8tGQkEmiKA6WiKdKL9cGFJVLgGwubYaAAyXUAgMwKYjswErXo4XFiqJppPexwb+WjJSCDQFAFMR1OkE+2HC0uiwjUQNsdGA5DpAgKZEcB0ZCZo1cPhwlI10Xza49jIR0tGAoGmCGA6miKdaD9cWBIVroGwOTYagEwXEMiMAKYjM0GrHg4XlqqJ5tMex0Y+WjISCDRFANPRFOlE++HCkqhwDYTNsdEAZLqAQGYEMB2ZCVr1cLiwVE00n/Y4NvLRkpFAoCkCmI6mSCfaDxeWRIVrIGyOjQYg0wUEMiOA6chM0KqHw4WlaqL5tMexkY+WjAQCTRHAdDRFOtF+uLAkKlwDYXNsNACZLiCQGQFMR2aCVj0cLixVE82nPY6NfLRkJBBoigCmoynSifbDhSVR4RoIm2OjAch0AYHMCGA6MhO06uFwYamaaD7tcWzkoyUjgUBTBDAdTZFOtB8uLIkK10DYHBsNQKYLCGRGANORmaBVD4cLS9VE82mPYyMfLRkJBJoigOloinSi/XBhSVS4BsLm2GgAMl1AIDMCmI7MBK16OFxYqiaaT3scG/loyUgg0BQBTEdTpBPthwtLosI1EDbHRgOQ6QICmRHAdGQmaNXD4cJSNdF82uPYyEdLRgKBpghgOpoinWg/XFgSFa6BsDk2GoBMFxDIjACmIzNBqx4OF5aqiebTHsdGPloyEgg0RQDT0RTpRPvhwpKocA2EzbHRAGS6gEBmBDAdmQla9XC4sFRNNJ/2ODby0ZKRQKApApiOpkgn2g8XlkSFayBsjo0GINMFBDIjgOnITNCqh8OFpWqi+bTHsZGPlowEAk0RwHQ0RTrRfriwJCpcA2FzbDQAmS4gkBkBTEdmglY9HC4sVRPNpz2OjXy0ZCQQaIoApqMp0on2w4UlUeEaCJtjowHIdAGBzAhgOjITtOrhcGGpmmg+7XFs5KMlI4FAUwQwHU2RTrQfLiyJCtdA2BwbDUCmCwhkRgDTkZmgVQ+HC0vVRPNpj2MjHy0ZCQSaIoDpaIp0ov1wYUlUuAbC5thoADJdQCAzApiOzAStejhcWKommk97HBv5aMlIINAUAUxHU6QT7YcLS6LCNRA2x0YDkOkCApkRwHRkJmjVw+HCUjXRfNrj2MhHS0YCgaYIYDqaIp1oP1xYEhWugbA5NhqATBcQyIwApiMzQXsdzh+KyOMi8h0R2SUi9sKyVUT+DxF5WET+z147oX4WBDAdWcjIICDQKAFMR6O44+9smYhMishpEZkRkZUiclxEhkVkqYiMiMhU/MMgwgYIYDoagEwXEMiMAKYjM0GrGI6Z0XhQRBZeMBjGiJwTkWdE5L9U0QFtZEEA05GFjAwCAo0SwHQ0ijuNzozJ+B8i8mtOuP9TRP4DsxxpCNhQlJiOhkDTDQQyIoDpyEjMKodiZjvM/o7LROTTC/s4mOWoknD6bWE60teQEUCgaQKYjqaJJ9KfO9vBLEciojUcJqajYeB0B4EMCGA6MhCxriHYvR3s5aiLcNrtYjrS1o/oIdAPApiOflBPpE8z2/GqiNzOXo5EFGs2TExHs7zpDQI5EMB0VKDimqGhoU0rVqwYnZqaWj0zM7OogjZpogYCw8PD08uWLfvoxIkTE7Ozs3tF5EgN3QxKk5iO3pQmb/TGr7Ha5I1KUWM6esG5dOnSl86dO3f7li1bFmzcuPGydevWyfLly3tpkro1Ejh58qQcPnxY9u/f/+nu3bvPL1y48NXTp0/fXWOXOTeN6SipLnmjJLg+VSNvVAoe01ES5+dGRkZ+uGHDhqvGx8eXYDRKUuxjNZNIxsbGzhw4cODjycnJr4nIz/oYTopdYzr0qpE39MyiqkHe6FkOTEcZhCMjIz8ZGxtbu3379jLVqRMRgR07dsj4+PgHk5OTX4gorBRCwXQoVSJvKIFFXJy8UVocTIcWnZkaHR0d3bRnz54l2rqUj5PA5s2bz0xMTOxlqUWlD6ZDgYu8oYCVSFHyRimhMB1KbGsWLVr042PHjg2zpKIkF3FxM2W6atWqmenp6S+yuTRYKExHMCohb4SzSqYkeaOUVJgODbahoaEdW7du/fbOnTvNkzr5ZERg27Ztn+7ateup2dlZ1szCdMV0hHES8kYgqASLkTfUomE6NMjMmuzExMTa9evXa6pRNgEChw4dktHRUfZ2hGuF6QhkRd4IBJVgMfKGWjRMhwbZ8PDw2ePHjy9iaUVDLY2yZqp05cqV0zMzM4vTiLjvUWI6AiUgbwSCSrAYeUMtGqZDiez8+fMm1/LJkcCCBQvMsIr/49OVAKajK6K5AuSNcFbJlSRvqCTDdKhwiZA8lMBSKk7yUKmF6QjHRd4IZ5VcSfKGSjJMhwoXpkOJK63iJA+VXpiOcFyYjnBWyZUkb6gkw3SocGE6lLjSKk7yUOmF6QjHhekIZ5VcSfKGSjJMhwoXpkOJK63iJA+VXpiOcFyYjnBWyZUkb6gkw3SocGE6lLjSKk7yUOmF6QjHhekIZ5VcSfKGSjJMhwoXpkOJK63iJA+VXpiOcFyYjnBWyZUkb6gkw3SocGE6lLjSKk7yUOmF6QjHhekIZ5VcSfKGSjJMhwoXpkOJK63iJA+VXpiOcFyYjnBWl5R877335IknnpDXX39dRkZGemipnqrkDRVXTIcKVx9Mhznhrr322iLMdevWyRtvvCFr1qxRhk3xEAIkjxBKc2UwHeG4upqOyclJueWWW2T16tXy7LPPyuLFv3ow7pEjR+Tmm2+Wr3zlK/N+H971r0qaC/Y777zTUxvaPqsqj+moimQU7WA6lDJ0TR7K9oKKx37SBQ0igUKYDpVImI5wXF3zhjEd9913n/z85z+XRx55RK655pqidfMN/5//+Z/FvHrBNSPhXadvOrRjbbo8eUNFHNOhwtWHmQ4Tn286zLef+++/37ygTO66665iCI8//rg8/PDDc8Mx32xuvfXWuZ9vuOGG4tuO+ZhvVDfddJO8+OKLxc9m9uSqq66SBx54QF5++eXid6+99lpRznzst63Dhw/P68t+Ozt48GDxexOLTYx+jLZ/f3rUj/Pdd9+dS7hKbXouTvJQIcR0hOMKNh3f+MY3ivP9u9/9rnz88cfy/e9/Xz7/+c/L+++/P3du+eede860Ole//vWvF7Ml9vy156I5/6empuTUqVPFeW/OefNx84bbtjFAfnmbI1wU7jnt5gQbt809Jh737zbX+TO7n3zyybzllU7j92P0Z4c71S2bi8gb4SeCiGA6VLgiMh0miRjTYYyGPZHMf5tvSCZp3XvvvXNLMa5psabDncY9e/ZsYTiuvPLKufbMt67HHntszoxs2rSpaNuU3bt3r5ifTSI0H/N7G4P5vUlENvnZGFtxdtsy08nmpDdt92vtluShOhswHeG4gk2HOefefPNN+epXvyofffRRsdxi/rVLI6ZLc65ed911886zF154Qb70pS8Vf2t1ru7bt++S5RVzgZ6YmJjLE93OR798q+H7X5BMnaNHjxaG6cyZM/OWkPyx+HnL5BAT0y9/+cs507FkyZK24zd5yI/RXVay/bs5yvB+/vnnxRgb+9/mi5Hp+4MPPpCNGzd2VZm80RWRWwDTocIVkekwMx3PPfdcsb/DmgabbMyJZz525qOV6bAGxc5kuO2Z35k2rr76arnxxhuLRGFP1E683H7tTIeNMYRzmToh7YaWIXmEkirKYTrCcalMh2n20UcfLQy/mfFwDYOZ/Wh1rpo699xzT9tztdWeDj9P+MPxz8du5W3ecHOP28YVV1xRxOfmHjeuZ555Zl7esvG4+cuYg3bjN+22yn3mi4wxPeZLkrsh1c2bpi/3i1q4tCLkDQ0tZjpUtEyi7cdbZtstr3QyHcYw2KnPENPhTr9aKHaJxZ+y9adczRq0/dhlnlAD4bfdz82yJA/V6YDpCMfVNW/YPR2tZhfdC7MxHe43chOC+fuHH35YXMzbnauhpqPT+RhqOtzc446rlekwucmaAmM63LrtTEen8XczHXbpxpXO5jN3eaXdcnAryckb4ScCyysqVr/6dpeK6XC/bYSYDv9EbofGbcusCdupU7M8op3psAnOTA2bqdFQo6KXLawGySOM04VSmI5wXF3zhntx9u9O801Hp2/6bkjuufrWW2+1XF7xZyXMl49252Oo6Yh5psMaHHt3UDsJQ8Zq65I3wk8ETIeKVTqmo9W6qvmdu5HUneL093SYkdo1TfPNwEzv3nnnnQUA33TYBOO3EWIg/DL+mq5ent5qkDxU/DAd4bgqMx2mS3f/lWvc165d2/ZcNfsT/Gdd+BfWbudjyIXYP4db7emwuSdkL5pFbGO3ezrs/jP/i0unmQ5/T4fNZ66M7l1DrnnqJDV5I/xEwHSoWPXHdLR6ToeJpNOeDvN3c/LZZQ+z5OFv5nJNhylvTYO9e8Uuc/h3tbjLH+5UrPn9ypUri2eK2Gle/xtZK9xunNdff31RRLMPRC9h+xokDxVNTMdFXH8oIn8mIlNtCFZmOsw39HZ3YLQ7h919X+b8du9e8S+snc7HENNh2ut294q9282Ude+S8+vaXKO9e8Udk7t804qdZWH6cJeY/btqMB2q3NCpMBtJlSi7Jg9le40Ud9d8G+kw0U4wHSrhMB0XcZ0Rkc+IyFMX/uebjyTzhupoCCjsz2wEVEmiCHlDJROmQ4WrT3s6lDFe8k1I49q1feVUnuShUhPTcRHXAyKyQ0QWXPifuQ3DGBBrPjAdIpfc2q862iIuTN5QiYPpUOFKxHQox0TxCwRIHqpDAdMxH9cnImJfDHLWMx+n+rEBXaUmhUsTIG+o0GE6VLgwHUpcaRW/kDzSCppoYyIwKyJDTkAzIrJPRL6B6YhJpmpjwXSoeGI6VLgwHUpcaRUneaj0YqaDmQ7VAZNrYfKGSllMhwpXxabD3Vj19ttvt3wwjjI+VfFeXiTXS11VkBcK22cV3H333fK9732veHRx1a+5JnmolMF0XMQ1JiJPNrmnI/a3xobcMt/uaOulruoIrqgweUMFEtOhwlWx6TC3uJnHHd9xxx3F+xbs0/jc22Td+Pzby5SxX1K8F+MQWreq5Gj6M8bMvLwq9EFmWj4kDxUxTMdFXI3fvVLVeaVSXFG4F+MQWjcWBuQNxYHBC99UsEzhSnehu6bjRz/6UfFyJ/vCNv9BPupII6lQVWKwpsO8X8I8CfXBBx+Ubk8V1CIgeaiIYTou4up7wAY+AAAgAElEQVT5OR0q8heehWFfAlf1eaCNpV/lq8otvcZP3lARZKZDhati09Gu726zCJ1ewew+3Me0b2+XtS+KMm99Nb8zD8WxD++yb3W1Tw80b7U0D/AxD+fZs2ePvPTSS8Wrr90Hg7V6H4z7cB3zQLJ2r9Q2j2Ru9/rsVq/mti+uU2qlLk7yUCHDdITjquTLSrtzu9MDw1qF6D9EzJ1B7XT++XnHPljL9GHe82RfWW9+/pM/+ZPiJWv2QX+a3OLPdLSKqV1u8R/yZd8FZWLyH6pW1aMEyBvhJwJPJFWxKgpXkjy6ddvJdJgTsN0rmP1Xw/vvbDCmwH3VfKfHpZv9Ev5rot0nErp17aOJQ16p3en12Z3aaeLbHMmj25E57++YjnBcPeeNTud2p1e2+/ue/NcVdHrRnHuumje0um9hbfU+JzNTa4yGOVdbvaHWvoqhW25x69onIofkFiPH/v37xTwO3jyFtdUj0t0Xyr3yyiuFUep1bxh5I/xEwHSoWDVrOlq9DdF8IzEndqtXMNtkct111829Xbbbi6JamQ4zSjuz4E9fuj+7r4m233RMYrBvtrVou02Btnr1dat29FLpa5A8VMwwHeG4ejId3c7tTq9st+8SsaG22i9hvkyYi/GNN95YnL+tzr9W7zSxS8D2/HdfrdDKdITmFjsra2ZJ7Jtpy+QWl5sxF+47a8Kl616SvNGdkVOC5RUVrghmOky8rV7B7M8S2HJ23dc9ke1bLKsyHeabguaV2p1en92uHaVOpYqTPFTYMB3huCoxHfbbvn9uG9PR6ZXtbpj++WX/ZpdY2p1/1pjYLxUhb652373km5ZOX2j8XKXJLf7SkRmfHZu/vFLVxnzyRviJwEyHilWzMx2hG0ntyWw2Vhon34+ZDn96stMrtTWvs++2t0UvX+caJA8VUUxHOK5KTEe7c9uYjtBXtvvLs52G0O6N0qZOk6bDjbFTbvGXjlrNEHWa8QmXc35J8oaKHDMdKlwRzHSYk858Wr2C2f32YMoYE2I+Zp21zpkO08e+ffvkzjvvLPpzE4P/Su1Or882U6nt2ul13TVEZ5JHCKW5MpiOcFw9mQ5/ZsM/tzu9st1fXvEvzKYtc06a89TMloSex+bLjt2jYdowMyB1La+ExuSbDDuzYWaIzPKKMWbmv1vtOQmX8tKS5A0VPUyHCleDpqPdno4vf/nLbV/B7E4tmjtNzKvily1b1vZV81Utr9ilHXOHi/m4d7m4Mbmv1H7kkUeKsu7r7O2msVbtKHUqVZzkocKG6QjH1bPpaHVunzp1am7jpr90YM+1VmbdX4Kw52u388+9e8bcFXL06NGif2t66jAdnWJqlVusebJ5aOXKlXLbbbcVpsi/++fdd9+d+/IWLiWmoxdWLK/o6fWcPPRdlq/hr8OWb2kwamI6VDpjOsJxJZU3QoZlZlU//PDDuU3nIXVyLUPeUCnLTIcKV0MzHcqY5or38xkXZWOOqR7JQ6UGpiMcV/Kmo65nXIQjjLckeUOlDaZDhSty06EcC8U9AiQP1SGB6QjHlbzpCB/q4JUkb6g0x3SocGE6lLjSKk7yUOmF6QjHhekIZ5VcSfKGSjJMhwoXpkOJK63iJA+VXpiOcFyYjnBWyZUkb6gkw3SocGE6lLjSKk7yUOmF6QjHhekIZ5VcSfKGSjJMhwoXpkOJK63iJA+VXpiOcFyYjnBWyZUkb6gkw3SocGE6lLjSKk7yUOmF6QjHhekIZ5VcSfKGSjJMhwoXpkOJK63iJA+VXpiOcFyYjnBWyZUkb6gkw3SocGE6lLjSKk7yUOmF6QjHhekIZ5VcSfKGSjJMhwbX8PDw2ePHjy9avny5phplEyBw8uRJWbly5fTMzMziBMKNIURMR6AK5I1AUAkWI2+oRcN0aJCNjIz8ZGJiYu369es11SibAIFDhw7J6OjoB5OTk19IINwYQsR0BKpA3ggElWAx8oZaNEyHBtnQ0NCOrVu3fnvnzp2XaepRNn4C27Zt+3TXrl1Pzc7Obo8/2igixHQEykDeCASVYDHyhlo0TIcS2ZpFixb9+NixY8MssSjJRVzcTJGuWrVqZnp6+ovmTd8RhxpTaJiOcDXIG+GskilJ3iglFaZDi23p0qUvjY6ObtqzZ88SbV3Kx0lg8+bNZyYmJvaePn367jgjjDIqTIdCFvKGAlYiRckbpYTCdJTBZtZox8bG1m7fzkx8GX4x1dmxY4eMj4+zl0MvCqZDyYy8oQQWcXHyRmlxMB0l0X1uZGTkhxs2bLhqfHx8CUstJSn2sZqZGh0bGztz4MCBjycnJ78mIj/rYzgpdo3p0KtG3tAzi6oGeaNnOTAdvSA0U6bnzp27fcuWLQs2btx42bp16wQD0gvReuuahHH48GHZv3//p7t37z6/cOHCV1lSKc0c01ESHXmjJLg+VSNvVAoe01EBzjVDQ0ObVqxYMTo1NbV6ZmZmUQVt0kQNBIaHh6eXLVv20YkTJyZmZ2f3smm0J8iYjp7wCXmjN36N1SZvVIoa01EpThqDwOAQwHQMjtaakX5WRH4qIjxBUUNtcMpiOgZHa0YKgUoJYDoqxZlNY5iObKSsZSCYjlqw0igE8ieA6chf4zIjxHSUoTY4dTAdg6M1I4VApQQwHZXizKYxTEc2UtYyEExHLVhpFAL5E8B05K9xmRFiOspQG5w6mI7B0ZqRQqBSApiOSnFm0ximIxspaxkIpqMWrDQKgfwJYDry17jMCDEdZagNTh1Mx+BozUghUCkBTEelOLNpDNORjZS1DATTUQtWGoVA/gQwHflrXGaEmI4y1AanDqZjcLRmpBColACmo1Kc2TSG6chGyloGgumoBSuNQiB/ApiO/DUuM0JMRxlqg1MH0zE4WjNSCFRKANNRKc5sGsN0ZCNlLQPBdNSClUYhkD8BTEf+GpcZIaajDLXBqYPpGBytGSkEKiWA6agUZzaNYTqykbKWgWA6asFKoxDInwCmI3+Ny4wQ01GG2uDUwXQMjtaMFAKVEsB0VIozm8YwHdlIWctAMB21YKVRCORPANORv8ZlRojpKENtcOpgOgZHa0YKgUoJYDoqxZlNY5iObKSsZSCYjlqw0igE8ieA6chf4zIjxHSUoTY4dTAdg6M1I4VApQQwHZXizKYxTEc2UtYyEExHLVhpFAL5E8B05K9xmRFiOspQG5w6mI7B0ZqRQqBSApiOSnFm0ximIxspaxkIpqMWrDQKgfwJYDry17jMCDEdZagNTh1Mx+BozUghUCkBTEelOLNpDNORjZS1DATTUQtWGoVA/gQwHflrXGaEmI4y1AanDqZjcLRWj3S5iPydiHxFXZMKEIDAIBM4KCI3DjIAxt6WAKaDg6MtAb6xcHB0IsBMB8cHBCCgJYDp0BIboPKXi8j/KyLGfPCBgE8A08ExAQEIaAlgOrTEBqg8pmOAxC4xVExHCWhUgcCAE8B0DPgB0Gn4y0TkqIgY88EHAsx0cAxAAAK9EsB09Eow4/rGdPxMRMy/fCCA6eAYgAAEeiWA6eiVYMb1l4rIMUxHxgr3NjSWV3rjR20IDCIBTMcgqh445l8XkeMiYswHHwgw08ExAAEI9EoA09ErwYzrYzoyFreCoTHTUQFEmoDAgBHAdAyY4JrhLhGR/yEixnzwgQAzHRwDEIBArwQwHb0SzLg+piNjcSsYGjMdFUCkCQgMGAFMx4AJrhnuYhGZFBFjPvhAgJkOjgEIQKBXApiOXglmXB/TkbG4FQyNmY4KINIEBAaMAKZjwATXDHeRiJwQEWM++ECAmQ6OAQhAoFcCmI5eCWZc/9dE5BciYswHHwhgOjgGIACBXglgOnolmHF9TEfG4lYwNJZXKoBIExAYMAKYjgETXDPcYRGZEhFjPvhAgJkOjgEIQKBXApiOXglmXB/TkbG4FQyNmY4KINIEBAaMAKZjwATXDPcyEfmliBjzwQcCzHRwDEAAAr0SwHT0SjDj+gtF5AymI2OFexsaMx298aM2BAaRAKZjEFUPHLMxHWdFxMx4mM8CETEXGj4QMAQwHRwHEICAlgCmQ0ss8/IPisijIvJfRGS3iExfMB3fFpEnROR/F5FnM2fA8MIIYDrCOFEKAhC4SADTwdEwj8BviMj/d+H5HDMislJEfu48Ct383RgRPhDAdHAMQAACWgKYDi2xASj/jIhsFRGzvHJaRJZe2FD6vQuzHQOAgCEGEMB0BECiCAQgMI8ApoMD4hICK0TkuLOXwxQwG0r/w4V/QQYBQwDTwXEAAQhoCWA6tMQGpLyZ1XjggvEwyynm58cGZOwMM4wApiOME6UgAIGLBDAdHA0tCXz2wt4O84wOYzquuLDEAi4IWAKYDo4FCEBASwDToSU2QOX/RET+UETMvw8P0LgZahgBTEcYJ0pBAALMdHAMBBC4XET+q4jcfuEdLAFVKDJABDAdAyQ2Q4VARQSY6agA5JqhoaFNK1asGJ2amlo9MzPDq+ArgFpHE8PDw9PLli376MSJExOzs7N7ReRIHf0MSJuYjt6EJm/0xq+x2uSNSlFjOnrBuXTp0pfOnTt3+5YtWxZs3LjxsnXr1sny5ct7aZK6NRI4efKkHD58WPbv3//p7t27zy9cuPDV06dP311jlzk3jekoqS55oyS4PlUjb1QKHtNREufnRkZGfrhhw4arxsfHl2A0SlLsYzWTSMbGxs4cOHDg48nJya+JyM/6GE6KXWM69KqRN/TMoqpB3uhZDkxHGYQjIyM/GRsbW7t9+/Yy1akTEYEdO3bI+Pj4B5OTk1+IKKwUQsF0KFUibyiBRVycvFFaHEyHFp2ZGh0dHd20Z8+eJdq6lI+TwObNm89MTEzsZalFpQ+mQ4GLvKGAlUhR8kYpoTAdSmxrFi1a9ONjx44Ns6SiJBdxcTNlumrVqpnp6ekvsrk0WChMRzAqIW+Es0qmJHmjlFSYDg22oaGhHVu3bv32zp077eveNdUpGzGBbdu2fbpr166nZmdnWTML0wnTEcZJyBuBoBIsRt5Qi4bp0CAza7ITExNr169fr6lG2QQIHDp0SEZHR9nbEa4VpiOQFXkjEFSCxcgbatEwHRpkw8PDZ48fP76IpRUNtTTKmqnSlStXTs/MzCxOI+K+R4npCJSAvBEIKsFi5A21aJgOJbLz58+bXMsnRwILFiwwwyr+j09XApiOrojmCpA3wlklV5K8oZIM06HCJULyUAJLqTjJQ6UWpiMcF3kjnFVyJckbKskwHSpcmA4lrrSKkzxUemE6wnFhOsJZJVeSvKGSDNOhwoXpUOJKqzjJQ6UXpiMcF6YjnFVyJckbKskwHSpcmA4lrrSKkzxUemE6wnFhOsJZJVeSvKGSDNOhwoXpUOJKqzjJQ6UXpiMcF6YjnFVyJckbKskwHSpcmA4lrrSKkzxUemE6wnFhOsJZJVeSvKGSDNOhwoXpUOJKqzjJQ6UXpiMcF6YjnFVyJckbKskwHSpcCZiOI0eOyP333y/PPfecrFmzRjm8zsXrbLvSQEs2RvJQgcN0hOPCdISzSq4keUMlGaZDhatB0/H666/LrbfeOi+8d999V6655pqOIddpDOpsW6lDLcVJHiqsmI5wXJiOcFbJlSRvqCTDdKhwNWQ63nvvPXniiSfEGI+RkZEiRHPB/9u//Vt54IEH+mY6lKySK07yUEmG6QjHhekIZ5VcSfKGSjJMhwpXQ6bDGA7zefjhh9uGNzk5KbfccoscPHiwKGNnQVrNRrizJnfddZc8++yzsnjxr14xYgzOtddeW/z3unXr5I033iiWZfz2X3vtNfnyl798ydKNifWRRx4p6j/++ONzMZs+33nnHbn88svl6aefnhej+cGfyXFncUybU1NTcurUKXn55ZfF9G3GWveH5KEijOkIx4XpCGeVXEnyhkoyTIcKV0Omw16Q2y2nWEOwadOm4mJsjMZjjz0mzz//vHzyySfzjIFpa+/evXOzJuaCfvXVVxf1jOG4995754yGaefs2bPyW7/1W8Xfbfvmdz/4wQ9k7dq1l7RtjIUxMeZjZmGuvPLKwnj4Y3Bnb5YsWVLEZNo35qdVjBMTE3NxKTUqXZzkoUKH6QjHhekIZ5VcSfKGSjJMhwpXQ6aj1UzADTfcMGcc/OUXYwrMBd9cxK+44oo5Y3DVVVcVv7/uuuvmZgpMXXPBN0bhmWeeaTmj0mp5xxR0Z1HatW2Xhd56661ipsPOqrjGyC4ZWfb+7EzITI9St6DiJI8gTLYQpiMcF6YjnFVyJckbKskwHSpcDZoONy5rKszvzEX8/fffn1sSccuZmZFWpsMsUbgfu8RiTIed9XD/7hoTuwzTznQYo2M3t7rGopvpMGVvvvlmOXz4cNG1u7SD6VAelf0pjukI547pCGeVXElMh0oyTIcKV59Mh4nRnX344IMP5mYrXFMQYgzc8ba7uNc902GWgIzheOGFFwrDwkyH8iiMozimI1wHTEc4q+RKYjpUkmE6VLgaMh3GDHz1q1+dd3usaxD8PR3WlJh/3ZkOsyHU3y9hZk3sfgozY+Lu6TBmw3zM3g13T4fpb9++ffI7v/M7bfeLmH0a/p6Odssr/r4Tf28JMx3Ko7I/xTEd4dxLmw670dvfTG33TPWyydrmEbMHq9ut+OFDHbySmA6V5pgOFa6GTId7R4mNz70zxPzOv7vE7vnwL+imrH+niJuo3L+5Sxz+8kfZu1fa7elw73q5/vrri2HaB5phOpRHZX+KYzoucv9DEfkzEZlqI0VPpsOc+7/xG79RbBQ3+6HMuX/ffffJz3/+c7nttttK39mF6ajmxMF0qDhiOlS4GjIdypgoXhEBkocKJKbjIq4zIvIZEXnqwv9889GT6TAzk1/60pfk13/91wuDYb4o/PKXvyz2drmbxDvdGu+afPvl4s0335y73d0Mxf1iMTo6Kmbvl/0y8+KLL86VbXVr/U033SSmjPnY2+79o8mNwfzN7i37+OOPixlUt88//dM/lW9+85vFnXB2Fsa9867bLfntHilg+vW/UPlf6FRngYiQN1TEMB0qXJgOJa60ipM8VHphOi7iMk/s22GuPxf+Z24LMwbEmo+eTcf27dtlx44dYv599dVX5fbbby9+tqbD34dlLtBHjx6d23hu71gze8D8ZVT3wm4vyMYA2OcE2eXVO++8sxix2/aZM2cKI7R69ep5z//xjyR/mdeaBjMTakyH2ePl92na7WQ6zBOb7WMF/Fvy3bv27JjMHjJj3uydfsbMuMvN/v640LOBvBFKqiiH6VDhwnQocaVVnOSh0gvTMR/XJyLyq8cHi5z1zMep8+cNLv3HvZPM7Kv6m7/5G/n93/99MTML7oXVX5J0N2f/6Ec/mvesHhtFq+WVkFcduBd405ZvDvxR2rvv/FkZu+fLznS474tqFVurmQ67fOuW9/e1WaNk/r3nnnvm7VfTK3JpDfKGiiKmQ4UL06HElVbxC8kjraCJNiYCsyIy5AQ0IyL7ROQbVZgOc3G2DwG0G7fthdy9IJv+7b4PU95sKHeXNuyyhp2l8Gc6Wr0w0t9nZpddNKbDvb3en+nw+9SaDv9ZRZaTfSaQ6e/DDz8sZk785ZWQd1p1OsgwHapTENOhwoXpUOJKqzjJQ6UXMx0Nz3S40//+7EGnmQ73bdNuvRtvvPGSWYpWMx3+3WUpz3T4r5Zo93gAzZlA3tDQYnlFRcusR5X9xqLtqF159xvA22+/3fLhXlX1VVc79lvO3XffLd/73vfmduXX1V9ouySPUFJFOUzHRVxjIvJknXs63PclmW5909HqtnO7p8O+wsCYD7eev0Rj2m1nOtwXULr7M0JmOkwZd2bD/GxfXGn3dPgzHf747OzEt771rbnNtO4t+a3at69kcPd0mMcBmGUquz8F06E656sozEyHkmLfTYc5GR999FG54447xOw+958o6t8ea8bX6/ShklHX4uZEN4bp61//+tx0sf9o9K6N1FAA06GCium4iKv2u1e6mQ57YTebK83HfbGjvzTi3q3h/q3dbfHWANgnG5tNnydPniyMRKjpcNswd7+Y2+SXLVs2t9zRaknHXQYx4zEvjzR17R08dqwmBvc1Eebndnev+GNx78RRHf1OYfKGihymQ4UrgpkO13SYDWJm17jdhe1+e7BTsebke+ihh+TJJ58s7vGP4WNNh9nUZW6ze/DBB+feetvP+EgeKvqYjou4antOh0qRhAr7e1C0obszG2XvOtH22a48eUNFEtOhwhWB6WgXb8g0oZ06TfV+eKVW6uIkDxUyTEc4rr7PkIaHWk/Jqp+NgemoR6cGWsV0KCFHmzxCnuLZ7h78VO6HV2qlLo7pUCHDdITjijZvhA+Bksx0VHIMYDqUGKNNHv50pbu3o9Mj0rW3pvXzfnilVurimA4VMkxHOK5o80b4ECiJ6ajkGMB0KDFGmzxC3hjb6r0sWtPRz/vhlVqpi2M6VMgwHeG4os0b4UOgJKajkmMA06HEGG3yaLenw/19FaYjdKajjvvhlVqpi2M6VMgwHeG4os0b4UOgJKajkmMA06HEGG3ysDMQZjzu7XXdTEdK98MrtVIXx3SokGE6wnFFmzfCh0BJTEclxwCmQ4kx+uThP6fDvX+93XsVUrkfXqmVujimQ4UM0xGOK/q8ET4USvoEyBuqYwLTocIV8S2zynEEF4/p1rTgoEsWJHmowGE6wnFhOsJZJVeSvKGSDNOhwoXpUOJKqzjJQ6UXpiMcF6YjnFVyJckbKskwHSpcA2g6lHySLk7yUMmH6QjHhekIZ5VcSfKGSjJMhwoXpkOJK63iJA+VXpiOcFyYjnBWyZUkb6gkw3SocGE6lLjSKk7yUOmF6QjHhekIZ5VcSfKGSjJMhwoXpkOJK63iJA+VXpiOcFyYjnBWyZUkb6gkw3SocGE6lLjSKk7yUOmF6QjHhekIZ5VcSfKGSjJMhwoXpkOJK63iJA+VXpiOcFyYjnBWyZUkb6gkw3SocGE6lLjSKk7yUOmF6QjHhekIZ5VcSfKGSjJMhwoXpkOJK63iJA+VXpiOcFyYjnBWyZUkb6gkw3RocA0PD589fvz4ouXLl2uqUTYBAidPnpSVK1dOz8zMLE4g3BhCxHQEqkDeCASVYDHyhlo0TIcG2cjIyE8mJibWrl+/XlONsgkQOHTokIyOjn4wOTn5hQTCjSFETEegCuSNQFAJFiNvqEXDdGiQDQ0N7di6deu3d+7ceZmmHmXjJ7Bt27ZPd+3a9dTs7Oz2+KONIkJMR6AM5I1AUAkWI2+oRcN0KJGtWbRo0Y+PHTs2zBKLklzExc0U6apVq2amp6e/KCJHIg41ptAwHeFqkDfCWSVTkrxRSipMhxbb0qVLXxodHd20Z8+eJdq6lI+TwObNm89MTEzsPX369N1xRhhlVJgOhSzkDQWsRIqSN0oJhekog82s0Y6Nja3dvp2Z+DL8YqqzY8cOGR8fZy+HXhRMh5IZeUMJLOLi5I3S4mA6SqL73MjIyA83bNhw1fj4+BKWWkpS7GM1MzU6NjZ25sCBAx9PTk5+TUR+1sdwUuwa06FXjbyhZxZVDfJGz3JgOnpBaKZMz507d/uWLVsWbNy48bJ169YJBqQXovXWNQnj8OHDsn///k937959fuHCha+ypFKaOaajJDryRklwfapG3qgUPKajApxrhoaGNq1YsWJ0ampq9czMzKIK2qSJGggMDw9PL1u27KMTJ05MzM7O7mXTaE+QMR094RPyRm/8GqtN3qgUNaajUpw0BoHBIYDpGBytNSP9rIj8VER4gqKG2uCUxXQMjtaMFAKVEsB0VIozm8YwHdlIWctAMB21YKVRCORPANORv8ZlRojpKENtcOpgOgZHa0YKgUoJYDoqxZlNY5iObKSsZSCYjlqw0igE8ieA6chf4zIjxHSUoTY4dTAdg6M1I4VApQQwHZXizKYxTEc2UtYyEExHLVhpFAL5E8B05K9xmRFiOspQG5w6mI7B0ZqRQqBSApiOSnFm0ximIxspaxkIpqMWrDQKgfwJYDry17jMCDEdZagNTh1Mx+BozUghUCkBTEelOLNpDNORjZS1DATTUQtWGoVA/gQwHflrXGaEmI4y1AanDqZjcLRmpBColACmo1Kc2TSG6chGyloGgumoBSuNQiB/ApiO/DUuM0JMRxlqg1MH0zE4WjNSCFRKANNRKc5sGsN0ZCNlLQPBdNSClUYhkD8BTEf+GpcZIaajDLXBqYPpGBytGSkEKiWA6agUZzaNYTqykbKWgWA6asFKoxDInwCmI3+Ny4wQ01GG2uDUwXQMjtaMFAKVEsB0VIozm8YwHdlIWctAMB21YKVRCORPANORv8ZlRojpKENtcOpgOgZHa0YKgUoJYDoqxZlNY5iObKSsZSCYjlqw0igE8ieA6chf4zIjxHSUoTY4dTAdg6M1I4VApQQwHZXizKYxTEc2UtYyEExHLVhpFAL5E8B05K9xmRFiOspQG5w6mI7B0ZqRQqBSApiOSnFm0ximIxspaxkIpqMWrDQKgfwJYDry17jMCDEdZagNTh1Mx+BozUghUCkBTEelOLNpDNORjZS1DATTUQtWGoVA/gQwHflrXGaEmI4y1AanDqZjcLRmpBColACmo1Kc2TSG6chGyloGgumoBSuNQiB/ApiO/DUuM0JMRxlqg1MH0zE4WjNSCFRKANNRKc5sGsN0ZCNlLQPBdNSCNY9GTfJ4S0S+ksdwGAUEINAQgYMicmNDfdFNWgQwHWnp1Wi0fGNpFHdynTHTkZxkBAyBvhPAdPRdgngDwHTEq00MkWE6YlCBGCCQFgFMR1p6NRotpqNR3Ml1hulITjIChkDfCWA6+i5BvAFgOuLVJobIMB0xqEAMEEiLAKYjLb0ajRbT0Sju5DrDdCQnGQFDoO8EMB19lyDeADAd8WoTQ2SYjhhUIAYIpEUA05GWXo1Gi+loFHdynWE6kpOMgCHQdwKYjkBRNTsAACAASURBVL5LEG8AmI54tYkhMkxHDCoQAwTSIoDpSEuvRqPFdDSKO7nOMB3JSUbAEOg7AUxH3yWINwBMR7zaxBAZpiMGFYgBAmkRwHSkpVej0WI6GsWdXGeYjuQkI2AI9J0ApqPvEsQbAKYjXm1iiAzTEYMKxACBtAhgOtLSq9FoMR2N4k6uM0xHcpIRMAT6TgDT0XcJ4g0A0xGvNjFEhumIQQVigEBaBDAdaenVaLSYjkZxJ9cZpiM5yQgYAn0ngOnouwTxBoDpiFebGCLDdMSgAjFAIC0CmI609Go0WkxHo7iT6wzTkZxkBAyBvhPAdPRdgngDwHTEq00MkWE6YlCBGCCQFgFMR1p6NRotpqNR3Ml1hulITjIChkDfCWA6+i5BvAH4pmOhiJyLN1wia5gApqNh4HQHgQwIYDoyELHKIXxXRMZE5I9E5C9F5KcicoWIbBORJ0TkXhH58yo7pK1kCWA6kpWOwCHQNwKYjr6hj7PjK0Xk30RkUkTOishKEfnlhVDNTMeyOMMmqj4QwHT0ATpdQiBxApiOxAWsI/yXROROERkSkakLRmNaRB4Vkafq6JA2kySA6UhSNoKGQF8JYDr6ij/Ozu1shxvdL0RkeZzhElWfCGA6+gSebiGQMAFMR8Li1Rm6me34AxH5jIjMiMjDzHLUiTvJtjEdScpG0BDoKwFMR1/xx9u5O9vBLEe8OvUzMkxHP+nTNwTSJIDpSFO3RqI2sx13iMhDzHI0wju1TjAdqSlGvBDoPwFMR/81iDYCM9vxnIiMRhshgfWTAKajn/TpGwJpEsB0VKDbmqGhoU0rVqwYnZqaWj0zM7OogjZpogYCw8PD08uWLfvoxIkTE7Ozs3tF5EgN3QxKk5iO3pQmb/TGr7Ha5I1KUWM6esG5dOnSl86dO3f7li1bFmzcuPGydevWyfLl3OTRC9M66548eVIOHz4s+/fv/3T37t3nFy5c+Orp06fvrrPPjNvGdJQUl7xRElyfqpE3KgWP6SiJ83MjIyM/3LBhw1Xj4+NLMBolKfaxmkkkY2NjZw4cOPDx5OTk10TkZ30MJ8WuMR161cgbemZR1SBv9CwHpqMMwpGRkZ+MjY2t3b59e5nq1ImIwI4dO2R8fPyDycnJL0QUVgqhYDqUKpE3lMAiLk7eKC0OpkOLzkyNjo6ObtqzZ88SbV3Kx0lg8+bNZyYmJvay1KLSB9OhwEXeUMBKpCh5o5RQmA4ltjWLFi368bFjx4ZZUlGSi7i4mTJdtWrVzPT09BfZXBosFKYjGJWQN8JZJVOSvFFKKkyHBtvQ0NCOrVu3fnvnzp2XaepRNn4C27Zt+3TXrl1Pzc7OsmYWJhemI4yTkDcCQSVYjLyhFg3ToUFm1mQnJibWrl+/XlONsgkQOHTokIyOjrK3I1wrTEcgK/JGIKgEi5E31KJhOjTIhoeHzx4/fnwRSysaammUNVOlK1eunJ6ZmVmcRsR9jxLTESgBeSMQVILFyBtq0TAdSmTnz583uZZPjgQWLFhghlX8H5+uBDAdXRHNFSBvhLNKriR5QyUZpkOFS4TkoQSWUnGSh0otTEc4LvJGOKvkSpI3VJJhOlS4MB1KXGkVJ3mo9MJ0hOPCdISzSq4keUMlGaZDhQvTocSVVnGSh0ovTEc4LkxHOKvkSpI3VJJhOlS4MB1KXGkVJ3mo9MJ0hOPCdISzSq4keUMlGaZDhQvTocSVVnGSh0ovTEc4LkxHOKvkSpI3VJJhOlS4MB1KXGkVJ3mo9MJ0hOPCdISzSq4keUMlGaZDhQvTocSVVnGSh0ovTEc4LkxHOKvkSpI3VJJhOlS4KjYdTzzxRNH9ww8/rAyje/E62+7e+/wSNpavfvWrsnfvXnn22Wdl8eL4nsFF8lApi+kIx4XpCGeVXEnyhkoyTIcKVxvTYS6qjzzyyFxT69atkzfeeEPWrFnTsfk6jUGdbSuZyeuvv15UWb169SWm47333pNrr71WzU4bQ0h5kkcIpbkymI5wXJiOcFbJlSRvqCTDdKhwtTAd5oL6zjvvzPv2bi6kH330kdxyyy19Mx3KcdVa3JqOL3/5y/K3f/u38sADDxT9md8//fTT8wzakSNH5pWpNTCvcZKHijamIxwXpiOcVXIlyRsqyTAdKlye6Th79mxxAb3uuus6Ggz32/wNN9xQXGxHRkbEn42w7b388stFWK+99tpcu/7fHn/88bllGdPerbfeWtSx7b/44ovFz3bpxlzMb775Zjl8+LC4MzGTk5NFHzfddJOYOubvd9111zwT5c7kdKpr+guZ4THlbL8mvmuuuaalDKbfqakpOXXqlBgmloc7XjdW2+bBgweL9ty/mfHff//95qVuxe9dHWznJA/V2YDpCMeF6QhnlVxJ8oZKMkyHCleLmQ5zYZyYmGh7sTWG49577537u7lgfvjhh4UZcE2HNRVXXnll8TdzAb3vvvvksccek6uuuqowN/ZvJub9+/fL9ddfL/v27SuWLKyR+ad/+qdiv8Sbb745Zzr8C7wb0xVXXFGYDrP0YfZamI9rpExd08edd95Z/M3EfPTo0aLsmTNn5tXV7NMwMZi2bNytdGjF1pR3x2vKXH311UUcpk3zMSbGjnnTpk3F36zpMqaj3R4akofqbMB0hOPCdISzSq4keUMlGaZDhStwT4f7DdufzTAXP2Mknn/++WJmwc5G2G/izz333NxeEHtBNcsS5lu6+zdTr9NMi9uvf4F36914443FRdmdcXAv5D4fty3zN79uKE/TTrdNpe1mgtyZpU7tuPVb8fVjJXmEqleUw3SE48J0hLNKriR5QyUZpkOFK+DuFfsN23zbtrMZ7iZT01+rJRB3+cONySwpGNNhjYpZlrEfax7Mt3l/icI3Hf4F3hqLENPhb/a08fdqOkJmOqwpc02WXX6yHHyT5/K2y1CYDuWR3r04pqM7I1sC0xHOKrmSmA6VZJgOFa4A02HaczeXPvPMM3PT/35f/jfxVsbC1Gl3wWxipsNfHqpqpiN0T0cr09HKZJly7tKPWephpkN5dOuKYzrCeWVrOtwvJO+++27b/VnhqMqXDFmy7dR62Tv+MB0qzTAdKlwtNpI++uijcscdd8wtifhGwL9om/5eeeWVuY2b9qLq7+mwZuODDz4o9m64ezpMWTNzYS6+/p4Os9dj7dq1Lfd02P0NrfZ0tFte8U9kd09FLzMd1px1unulVRLw93S4LIzBa8eTmQ7lkd69OKajO6OWMx32XDd3uLl7mqwRt+eGO6sZ3lX7LymaNkLKhnxxCGmnqjKYjqpI1toOpkOJ95JvLO6dFLYt964T8zt/ecJO+Xe7e6XVnSL2zgz37hX37pKyd6+0Mx3+XTPmDpiTJ0/OPXuj7J4Oy6rTczraffPwmVve/h06K1euLJ4BYsaG6VAe6d2LYzouMvpDEfkzEZlqg21e3rDnlDmPfv/3f3/uDjVzXP/N3/zN3PkVu+kIOae6H0bVlejVdJSNhJkOFTlMhwpX4PKKsk2KR0KA5KESAtNxEdcZEfmMiDx14X+++WhpOn73d39X/u7v/k6efPLJoqWHHnpIzO927949bwbE/VLhftlodYv4H//xH8t3vvOd4hZz+zHLHmZWxTxP6PLLLy+ejWPa+frXvz53G70p69+G75d37/ry96D5+7zslyN3yaXVLfCm3wMHDhSh/tVf/VXxr6nz9ttvzz1w0W/DlLGxuBvJ33///Xl3xPlfTrrFYu4qdNtu95gB/ywhb+jyxgJ2oeuAnT9vci2fHAmQPFSqYjou4jJPu9shIiafmv+ZdT5jQKz5aGk6zHKnMQPmY25ZN/9t/nU3WLv7w0w5d5nVv8vMLtt+8sknl9ztZi/A7oXXLsWaJyfbC+wLL7xQ7MtoVd4/OvyZDn9p2W+z3S3w7hKr36//8EV/9rOd6ViyZMncErTZ39XqVnv/UQdu250eM+A/aZq8ocsbmA4VL8l2Q5gOQ56lSR4qXTEd83F9IiL21rKznvk45X5Zce86M/uvzPN4PvvZzxYzHmYPlzUd5sLpP3zQLiF8//vfL8q5z+6x4bRa9mj15GQ3fN8wdCtv6vr9tLvt384etNuj5T7R2V8i8X8ONR3+0pQfW6tYQh8z4D9pmryhyxuYDhUvTIcOV1qlLySPtIIm2pgIzIrIkBPQjIjsE5FvtDMdZlbBf8Cdbzrcu7Xc5/yYfswF0C5luHub/Of6tDIR/n4t05771F//9Q7dZjrc2OxFv93DEG1bflxVmg5/CcjdIxdiOto9ZgDT0dMpx54OJT5mOpTAUirONxaVWsx0VDDT4T9fx73odprp8J/k636TN2F1Mx3+3XK5zXSYJSaz6d0uFzHToTq36yyM6VDSxXQEArMn+fe+9z156aWXitt7271jJbDJ2othOlSIMR0XcY2JiNkNqt7T0cl0mNkCdy+CNSFmSeXBBx+ct2fBvajaVxu4d6T5Mwq+yfBfG1BmecU3Mq32dNillrIzHa32uJi2zGsZ3I2k/r4W/9EF3WY6fB6tHn1gx0De0OUNlldUvFheCcVlTlqzG3/79u2yY8cOTEcouHTKYToualXq7pVWRrzVbZ/t7l5xf29CcTeJunduuHevmIuzfUeSe7u6WXowt5jfdtttxZJNGdNhYvDvqOl054kpr11ecZeETMz33HNPYTZ802FfqGmfTmyedWQ+9lUS3UyHKcvdK7UkI2Y6lFiZ6QgEZk2H2Rz3F3/xF/J7v/d7cw9QC2yi8WJ8Y1Ehx3RcxKV6ToeKMoWjJ0DeUEmE6VDhSuA5Ha3e4WK/bbS6T96/N929Bc2+RbbTa+/bvWZeyTWK4iQPlQyYjnBcfFkJZ5VcSfKGSjJMhwpX5KbDX4f07zVvdZ98p1vQ/FfXG1buLXytbmezr73XvOZeqUFtxUkeKrSYjnBcmI5wVsmVJG+oJMN0qHBFbjp8E9DKdJjxuk8WDDEd7Takue86sWug/q55Jd++Fid5qPBjOsJxYTrCWSVXkryhkgzTocKVgOlw7y2vw3S4yy/+G3RNf+ZBR+Ztuf5T+5Sc+1Kc5KHCjukIx4XpCGeVXEnyhkoyTIcKVwKmw32Ech2mw91tzkyH8ujJqzimI1xPTEc4q+RKYjpUkmE6VLgiNx2t3hdg3rLqbiT1l1c63fdu93TY5ZVu7yMwhoc9HcojKt3imI5w7TAd4aySK4npUEmG6VDhitx0mLG4997fdddd8otf/GJuuaPVvemd7nu3psM+Ztm0bx+TbLlx94ryCMqnOKYjXEtMRzir5EpiOlSSYTpUuBIwHe54Wr0LQTNef2ZDUzfFsiQPlWqYjnBcmI5wVsmVJG+oJMN0qHAlYDrcpxS6LzhSjrMojukoQ21g6mA6wqXGdISzSq4kpkMlGaZDhSsB06EcD8UdAiQP1eGA6QjHhekIZ5VcSfKGSjJMhwoXpkOJK63iJA+VXpiOcFyYjnBWyZUkb6gkw3SocGE6lLjSKk7yUOmF6QjHhekIZ5VcSfKGSjJMhwoXpkOJK63iJA+VXpiOcFyYjnBWyZUkb6gkw3SocGE6lLjSKk7yUOmF6QjHhekIZ5VcSfKGSjJMhwoXpkOJK63iJA+VXpiOcFyYjnBWyZUkb6gkw3SocGE6lLjSKk7yUOmF6QjHhekIZ5VcSfKGSjJMhwoXpkOJK63iJA+VXpiOcFyYjnBWyZUkb6gkw3RocA0PD589fvz4ouXLl2uqUTYBAidPnpSVK1dOz8zMLE4g3BhCxHQEqkDeCASVYDHyhlo0TIcG2cjIyE8mJibWrl+/XlONsgkQOHTokIyOjn4wOTn5hQTCjSFETEegCuSNQFAJFiNvqEXDdGiQDQ0N7di6deu3d+7ceZmmHmXjJ7Bt27ZPd+3a9dTs7Oz2+KONIkJMR6AM5I1AUAkWI2+oRcN0KJGtWbRo0Y+PHTs2zBKLklzExc0U6apVq2amp6e/KCJHIg41ptAwHeFqkDfCWSVTkrxRSipMhxbb0qVLXxodHd20Z8+eJdq6lI+TwObNm89MTEzsPX369N1xRhhlVJgOhSzkDQWsRIqSN0oJhekog82s0Y6Nja3dvp2Z+DL8YqqzY8cOGR8fZy+HXhRMh5IZeUMJLOLi5I3S4mA6SqL73MjIyA83bNhw1fj4+BKWWkpS7GM1MzU6NjZ25sCBAx9PTk5+TUR+1sdwUuwa06FXjbyhZxZVDfJGz3JgOnpBaKZMz507d/uWLVsWbNy48bJ169YJBqQXovXWNQnj8OHDsn///k937959fuHCha+ypFKaOaajJDryRklwfapG3qgUPKajApxrhoaGNq1YsWJ0ampq9czMzKIK2qSJGggMDw9PL1u27KMTJ05MzM7O7mXTaE+QMR094RPyRm/8GqtN3qgUNaajUpw0BoHBIYDpGBytNSP9rIj8VER4gqKG2uCUxXQMjtaMFAKVEsB0VIozm8YwHdlIWctAMB21YKVRCORPANORv8ZlRojpKENtcOpgOgZHa0YKgUoJYDoqxZlNY5iObKSsZSCYjlqw0igE8ieA6chf4zIjxHSUoTY4dTAdg6M1I4VApQQwHZXizKYxTEc2UtYyEExHLVhpFAL5E8B05K9xmRFiOspQG5w6mI7B0ZqRQqBSApiOSnFm0ximIxspaxkIpqMWrDQKgfwJYDry17jMCDEdZagNTh1Mx+BozUghUCkBTEelOLNpDNORjZS1DATTUQtWGoVA/gQwHflrXGaEmI4y1AanDqZjcLRmpBColACmo1Kc2TSG6chGyloGgumoBSuNQiB/ApiO/DUuM0JMRxlqg1MH0zE4WjNSCFRKANNRKc5sGsN0ZCNlLQPBdNSClUYhkD8BTEf+GpcZIaajDLXBqYPpGBytGSkEKiWA6agUZzaNYTqykbKWgWA6asFKoxDInwCmI3+Ny4wQ01GG2uDUwXQMjtaMFAKVEsB0VIozm8YwHdlIWctAMB21YKVRCORPANORv8ZlRojpKENtcOpgOgZHa0YKgUoJYDoqxZlNY5iObKSsZSCYjlqw0igE8ieA6chf4zIjxHSUoTY4dTAdg6M1I4VApQQwHZXizKYxTEc2UtYyEExHLVhpFAL5E8B05K9xmRFiOspQG5w6mI7B0ZqRQqBSApiOSnFm0ximIxspaxkIpqMWrDQKgfwJYDry17jMCDEdZagNTh1Mx+BozUghUCkBTEelOLNpDNORjZS1DATTUQtWGoVA/gQwHflrXGaEmI4y1AanDqZjcLRmpBColACmo1Kc2TSG6chGyloGgumoBSuNQiB/ApiO/DUuM0JMRxlqg1MH0zE4WjNSCFRKANNRKc5sGsN0ZCNlLQPBdNSCNY9GTfJ4S0S+ksdwGAUEINAQgYMicmNDfdFNWgQwHWnp1Wi0fGNpFHdynTHTkZxkBAyBvhPAdPRdgngDwHTEq00MkWE6YlCBGCCQFgFMR1p6NRotpqNR3Ml1hulITjIChkDfCWA6+i5BvAFgOuLVJobIMB0xqEAMEEiLAKYjLb0ajRbT0Sju5DrDdCQnGQFDoO8EMB19lyDeADAd8WoTQ2SYjhhUIAYIpEUA05GWXo1Gi+loFHdynWE6kpOMgCHQdwKYjr5LEG8AmI54tYkhMkxHDCoQAwTSIoDpSEuvRqPFdDSKO7nOMB3JSUbAEOg7AUxH3yWINwBMR7zaxBAZpiMGFYgBAmkRwHSkpVej0WI6GsWdXGeYjuQkI2AI9J0ApqPvEsQbAKYjXm1iiAzTEYMKxACBtAhgOtLSq9FoMR2N4k6uM0xHcpIRMAT6TgDT0XcJ4g0A0xGvNjFEhumIQQVigEBaBDAdaenVaLSYjkZxJ9cZpiM5yQgYAn0ngOnouwTxBoDpiFebGCLDdMSgAjFAIC0CmI609Go0WkxHo7iT6wzTkZxkBAyBvhPAdPRdgngDwHTEq00MkWE6YlCBGCCQFgFMR1p6NRotpqNR3Ml1hulITjIChkDfCWA6+i5BvAH4pmOhiJyLN1wia5gApqNh4HQHgQwIYDoyELHKIXxXRMZE5I9E5C9F5KcicoWIbBORJ0TkXhH58yo7pK1kCWA6kpWOwCHQNwKYjr6hj7PjK0Xk30RkUkTOishKEfnlhVDNTMeyOMMmqj4QwHT0ATpdQiBxApiOxAWsI/yXROROERkSkakLRmNaRB4Vkafq6JA2kySA6UhSNoKGQF8JYDr6ij/Ozu1shxvdL0RkeZzhElWfCGA6+gSebiGQMAFMR8Li1Rm6me34AxH5jIjMiMjDzHLUiTvJtjEdScpG0BDoKwFMR1/xx9u5O9vBLEe8OvUzMkxHP+nTNwTSJIDpSFO3RqI2sx13iMhDzHI0wju1TjAdqSlGvBDoPwFMR/81iDYCM9vxnIiMRhshgfWTAKajn/TpGwJpEsB0VKDbmqGhoU0rVqwYnZqaWj0zM7OogjZpogYCw8PD08uWLfvoxIkTE7Ozs3tF5EgN3QxKk5iO3pQmb/TGr7Ha5I1KUWM6esG5dOnSl86dO3f7li1bFmzcuPGydevWyfLl3OTRC9M66548eVIOHz4s+/fv/3T37t3nFy5c+Orp06fvrrPPjNvGdJQUl7xRElyfqpE3KgWP6SiJ83MjIyM/3LBhw1Xj4+NLMBolKfaxmkkkY2NjZw4cOPDx5OTk10TkZ30MJ8WuMR161cgbemZR1SBv9CwHpqMMwpGRkZ+MjY2t3b59e5nq1ImIwI4dO2R8fPyDycnJL0QUVgqhYDqUKpE3lMAiLk7eKC0OpkOLzkyNjo6ObtqzZ88SbV3Kx0lg8+bNZyYmJvay1KLSB9OhwEXeUMBKpCh5o5RQmA4ltjWLFi368bFjx4ZZUlGSi7i4mTJdtWrVzPT09BfZXBosFKYjGJWQN8JZJVOSvFFKKkyHBtvQ0NCOrVu3fnvnzp2XaepRNn4C27Zt+3TXrl1Pzc7OsmYWJhemI4yTkDcCQSVYjLyhFg3ToUFm1mQnJibWrl+/XlONsgkQOHTokIyOjrK3I1wrTEcgK/JGIKgEi5E31KJhOjTIhoeHzx4/fnwRSysaammUNVOlK1eunJ6ZmVmcRsR9jxLTESgBeSMQVILFyBtq0TAdSmTnz583uZZPjgQWLFhghlX8H5+uBDAdXRHNFSBvhLNKriR5QyUZpkOFS4TkoQSWUnGSh0otTEc4LvJGOKvkSpI3VJJhOlS4MB1KXGkVJ3mo9MJ0hOOq3HQcOXJEbr755uIJu/bz+OOPy8MPPxweFSUrIUDeUGHEdKhwYTqUuNIqTvJQ6YXpCMdVqemYnJyUW265pTAY11xzTRHF2bNn5ZlnnpF77rlHRkZGwiOjZM8EyBsqhJgOFS5MhxJXWsVJHiq9MB3huCo1He+995488cQT8vrrr7c1GMaEPPDAA/Lyyy8XUb722muFUWn3Me098sgjc3++66675Nlnn5XFixeLNTkHDx4s/v7uu+8WZsf+/qabbpIXX3yxmHVx65myJtZrr722qHfDDTfMxWxmau6//35zx1hRx/ztT//0T+Wb3/ym2H78ttzYWxkvM4arr766GKffvqlb10wQeSP8RBARTIcKF6ZDiSut4iQPlV6YjnBclZoOu7RiLtitllOs4bjyyiuLv5sL9H333SePPfaYrFmz5pKojXnZu3fvnCEwP7/zzjuF6Thz5kxxEd+0adPcxdy08/zzzxftmL+tXr26KGs+xuhcd911xe+N4bj33nvljTfeKPo17X744YdFTK3GYMqbj2tobL9+0CGmwyw/WUatyofL17kkeUNFEtOhwoXpUOJKqzjJQ6UXpiMcV6Wmw3Tbak+HnYGw3/Kfe+65OZPhzgK4YVuDYo2C+ZtrOt5///15syq2vDEDa9euvWSZx+3H/Lf5WGNk4rKG5ZNPPilmOtwYfZx+/TIzHbZ9N267JBUuH6ajKlbMdOhJVp489CFQoy4CmA4VWUxHOK7a84YxCk8//XQxq2A+/iZT87tWSyytLsa+6bDLI+5wjcEJMR3uko2pb5dY2pkOf5mn3ZJIyEyHa2owHeEHa80lmelQAq49eSjj6UvxOqcqyw6oipgwHSr6mI5wXLXnDff4v+KKK+ZmFLptKg2Z6TBLL3Z/h2a2od3sip2p8Wc6TPmjR4/O9cVMR/gBllBJTIdSrLbJw3XonTZAKfuLsrjmAt8pcVQ5OE1M7frFdKgUwXSE46rUdJi9D2+//fa8/Rzu5tIlS5YUeyvsng57kf/ggw9k48aNl0TtzmyYP5q65tNqT4f5vd170W2mw9/TYeq+8sorYjaetprpcHOFvy/FD9o3S3a56Vvf+ta8jaQsr4QfpA2VxHQoQXdMHk1dYJUxV15cc4FviokmJkxHJYcEpiMcY6Wmw7+bxITh3hlifvbvXlm3bt3chs52F3Bzp4spd/3118uyZcvmTI3fn+3LtOPfuuvPbrh3r5jydrmk1b4Td5+KiWPlypXFnS/tnj3iljdf9C6//PIifvfuFUxH+EHaUElMhxK0ynTYbxDmZDDrreZjN3vZftvdqrZv375iB7mta0/WdrevmfZMf7feeuvckNyNZe4ar7tOavqfmpqSU6dOFbfXtbu1rtvGtVbt+wnHzgDZHfH+LXgmcH98nWaNOsXk8wiZfWKmQ3U2YDrCcVVqOsK7LVey07JIuRbzrkXeUOmL6VDh6nL3iv+t3poAe/H376/vdKuaMR3GQLgmxV6QW92+ZqYr7c5ws45rLsh2OnX//v3Fpi9z25q9UL/wwgvFrWkm5omJibbfglwjYPv1ZxW6tW/asN9W2k2LuvHYe+1NPTsd669N+yz8mHy2IYmU5KE6GzAd4biiNh2+ea/reRbhuNIqSd5Q6YXpUOEqYTrs/e7mITvuLWN23bXdrWp2psPdwOWbFndHthmHe098u3H5F/2Q5Q+/305LGd3ab3c7n4n3wQcfvGQtut04OsX0x5NIhQAAIABJREFUpS99ad7zAkwbpny7DXG2D5KH6mzAdITjitp0hA+Dkq0IkDdUxwWmQ4WrBtNhZg/sfePuhq52pqPd7WumDXd5xV3j9dd3zZjtMkqo6XAv2L7p0LTvGi87e+E+NMhfXmm33OObCDcmazrs0xitxt2WWEgeqrMB0xGOC9MRziq5kuQNlWSYDhWuGkyHdqaj27d1Ox5rJvzZg24zEa14hMwq2J3y3drvNNPhbxhrVdbGFxKTa+hCdCZ5hFCaK4PpCMeF6XBYhTzGvR1a94uZmT2O4UPeUKmA6VDhqtB0mG/5nW5VazXT4e9jsMsG7hjsrIlvOqy58dsImenwZzbsBlGz38RfyvDb95OEfyucu8fEtGVMlTELdjmq3VMLO8VkZ33cRzubft22mSZVHvmXFsd0hCPEdGA6wo+WvEtiOpT6qp7T4RsHf2nBXZbwb1Vr5+jb3b5mNpK6d5C4SwnuXST2VrTbbrutuLUsxHRYc2OXdkzbH3300dxbLju178YbcveKfzePf7ePq5fbrx+TKeffzdPtpVd8Y1GdDZiOi7j+UET+TESm2hDEdGA6VCdXxoUxHUpxa00eIXdYKOOluIIApkMBSwTTcRHXGRH5jIg8deF/vvkIzhu+UfafiWHf6Gq6No88f/PNN4so7NKku9fp448/nvcmV1POvzPFNfnd7lppd7u+9o2ure7ia3Wrf6uj0fA5cOBA8ae/+qu/Kv51v5i44/GfTdLukQL+F5Rue7/8uMgburyxwLyARUTMv3y6EwhOHt2buvSlTd1O+pA2KVOeAMlDxY68cRGXeYTnjgt51OTSZzzzEZQ3/Cd4uhdn05X7Rle7n8GfqfRNR6c3rbZa3nWfYuoeDd1u19e80dV/eqq77Onf6u4fke47ZswjAHxGZnb5zjvvLKq5j1U3BqzdIwXK3F7vxkXe0OUNTIeKlwQlD12TlI6FAMlDpQSmYz6uT0Rk5MKvzl4wINZ8nDp/3uDq/GllIMzvzEXRmg4zo+G+JbWb6Wj1fhPTlt1g7m5k77TBs9Pt+uZdL5qXq3Xqp9PmcRO3v+zc6fZ9tx/zzKJWjxRo9e6ZkNvrMR3djua2f2d5RYkO06EEllLxC6YjpZCJNS4CsyIy5IQ0IyL7ROQboabDfTBeq5mOXk2HvT3dmg73Dq9Wt7PbsfhPF7a/N0sbvZoO/+FknR7Z3m5juh2HH6f76IBWjxSwz0vS3l6P6Sh94mE6lOgwHUpgKRVnpkOlFjMdAzbT0e52fX92ottr5F0zZTfA2ycS9zLTYeRwZzM6zaj4d/dpb6/HdKhyhVsY06FEh+lQAkupOKZDpRam4yKuMRF5soo9HXY5xdxSb/7bXDg7La90uu3ebiS1Lz3zL+juXoZWb6Z1j4ZOt+v3MtPhv23W39fiH5H+TIf78/vvv18wM7+zjySwt82b5RXz8R8pYGaO/D0dIbfXYzpUuQLTURpXl+d09NAuVSMggOlQiYDpuIirsrtX/LtJjh49Ou8V8/7yin/b/T333CPm4mten2BMh3sbvQm30wsnu21k73S7fi97Otwxmzfcmo81Sq1Mh3unS6cnL5uxnzx5sjAVnR4pYPrQ3l6P6VDlCkxHaVyYjh7QxV8V06HSCNNxEVctz+lwXw+gUuZC4W5LFWXapM6lBMgbqqOC5RUVrppMh/0GYe/BP3z4sLj3ioesmbpO3X8Il/vtqNUUq/3m0O3+dP+bjmFnH7hlpzkvv/xyefrpp4vnAZhNce1eeGfqmlsA243Z//bRLTalji2LkzxUFDEd4biClmX986vXYx7TES5QLyXJGyp6mA4VrppNx+rVq4tpUfN54IEHxN7O1s10dLrP3P+25P7sb7Ry72v332vgP77cv9XMmh53+tZff3V3x1vT0W7MmtiUGrYtTvJQkcR0hOMKMh3hzVEyJgLkDZUamA4VrppNhzsj4T6dtJPp6PYad/ehOHazmN2p7d/j3+mbUbsYrDFq9dj2ENPhjtkt/8wz5hEHF5+02MS3NpKH6mzAdITjwnSEs0quJHlDJRmmQ4UrYtPR7j5zO2tijIbZZe4+lc9/7LqZ3r3vvvuKMuZpf+6n3XtjqjQd7kN5jOlwn1nQKTalhsx0VAMM0xHOEdMRziq5kpgOlWSYDhWuiE1Hp/vM7ZKKuYjbZQ3zLzMd89UneajOBkxHOK4oTUerp3GGD2l+ySrbKhtDv+qRN1TkMR0qXH0yHb2+xt3OEpinIn73u9+dm8Xw74kP2dPh7jMxt6R961vfKjaEtlpeabUvo91zB1qN0X3QT6fYlBoy01ENMExHOEdMh8OqVa4IRxlfSUyHShNMhwpXn0yHidF9vK+50J86dUrc2Y1u95m3u2i3uuvF30RqGbmPK/7GN75R/Nosx5gH7rRLJO49+GYJ6O///u/l+eefn5txOXjw4JwE/qvnNbEpdWxZnOShoojpCMeF6cB0hB8teZfEdCj1jTJ5KMdQSfFe91h0elFTJQGWaATToYKG6QjHFU3e6HTbu//lxn3wVquhdmqr3e2//gPL3D78B6OZTeb20+mV9eEy1FOSvKHiiulQ4apppkMZQ9+K+7Mp/tMNNYFhOjS0oiyL6QiXJQrT0e22d3+5tdPDyULaMnjMLKj/CPVud7qZeuaRAVdeeaUY4+G/9dX8bNsOl6C+kpgOFVtMhwrXgJsOJavkipM8VJJhOsJxRWE6ut323mpjuXu3mzvcbm35aNy2270p1u4XszMu9j0qb731lth3qJh3qsT2IW+oFMF0qHBhOpS40ipO8lDphekIxxWN6XBNhH/HibuEYYfWboml2y30pr7fnn23SzvT4e5R89t32+r1Sa3hsoWVJG+EcbpQCtOhwoXpUOJKqzjJQ6UXpiMcVzSmo9WL2ewMg//cnk7D6zbT4W9c72Wmw53diPHWXPJG+IkgIpgOFS5MhxJXWsVJHiq9MB3huKIwHf4F296NZm97b/Va+VdeeaV4P5K/rNGtLddk+Ps//FvpDUb3VQ72ycl2T8f+/ftl7dq1xa3+mI7wgy7SkpgOpTBRJA9lzBQPJIDpCAT1q2KYjnBc0eSNVre9b9iwoXjWjvm4t+abnzu97r5TW+7f1q1bJytXrpRrr7222BhqjYO5hT7k7hVNTOGSVFeSvKFiielQ4WKmQ4krreIkD5VemI5wXNGYjvCQKRlKgLwRSupXX1YW8I1FB8w81ZNPngRIHipdMR3huDAd4aySK0neUEmG6VDhYqZDiSut4iQPlV6YjnBcmI5wVsmVJG+oJMN0aHANDw+fPX78+KLly5drqlE2AQInT540687TMzMzixMIN4YQMR2BKpA3AkElWIy8oRYN06FBNjIy8pOJiYm169ev11SjbAIEDh06JKOjox9MTk5+IYFwYwgR0xGoAnkjEFSCxcgbatEwHRpkQ0NDO7Zu3frtnTt3XqapR9n4CWzbtu3TXbt2PTU7O7s9/mijiBDTESgDeSMQVILFyBtq0TAdSmRrFi1a9ONjx44Ns8SiJBdxcTNFumrVqpnp6ekvisiRiEONKTRMR7ga5I1wVsmUJG+UkgrTocW2dOnSl0ZHRzft2bNnibYu5eMksHnz5jMTExN7T58+fXecEUYZFaZDIQt5QwErkaLkjVJCYTrKYDNrtGNjY2u3b2cmvgy/mOrs2LFDxsfH2cuhFwXToWRG3lACi7g4eaO0OJiOkug+NzIy8sMNGzZcNT4+voSllpIU+1jNTI2OjY2dOXDgwMeTk5NfE5Gf9TGcFLvGdOhVI2/omUVVg7zRsxyYjl4QminTc+fO3b5ly5YFGzduvMw87hcD0gvReuuahHH48GHZv3//p7t37z6/cOHCV1lSKc0c01ESHXmjJLg+VSNvVAoe01EBzjVDQ0ObVqxYMTo1NbV6ZmZmUQVt0kQNBIaHh6eXLVv20YkTJyZmZ2f3smm0J8iYjp7wCXmjN36N1SZvVIoa01EpThqDwOAQwHSkqTW6palbLlFjOnJRknFAoGECXLwaBl5Rd+hWEUiaKUUA01EKG5UgAAEuXmkeA+iWpm65RI3pyEVJxgGBhglw8WoYeEXdoVtFIGmmFAFMRylsVIIABLh4pXkMoFuauuUSNaYjFyUZBwQaJsDFq2HgFXWHbhWBpJlSBDAdpbBRCQIQ4OKV5jGAbmnqlkvUmI5clGQcEGiYABevhoFX1B26VQSSZkoRwHSUwkYlCECAi1eaxwC6palbLlFjOnJRknFAoGECXLwaBl5Rd+hWEUiaKUUA01EKG5UgAAEuXmkeA+iWpm65RI3pyEVJxgGBhglw8WoYeEXdoVtFIGmmFAFMRylsVIIABLh4pXkMoFuauuUSNaYjFyUZBwQaJsDFq2HgFXWHbhWBpJlSBDAdpbBRCQIQ4OKV5jGAbmnqlkvUmI5clGQcEGiYABevhoFX1B26VQSSZkoRwHSUwkYlCECAi1eaxwC6palbLlFjOnJRknFAoGECXLwaBl5Rd+hWEUiaKUUA01EKG5UgAAEuXmkeA+iWpm65RI3pyEVJxgGBhglw8WoYeEXdoVtFIGmmFAFMRylsVIIABLh4pXkMoFuauuUSNaYjFyUZBwQaJsDFq2HgFXWHbhWBpJlSBDAdpbBRCQIQ4OKV5jGAbmnqlkvUmI5clGQcEGiYABevhoFX1B26VQSSZkoRwHSUwkYlCECAi1eaxwC6palbLlFjOnJRknFAoGECXLwaBl5Rd+hWEUiaKUUA01EKG5UgAAEuXmkeA+iWpm65RI3pyEVJxgGBhglw8WoYeEXdoVtFIGmmFAFMRylsVIIABLh4pXkMoFuauuUSNaYjFyUZBwQaJsDFq2HgFXWHbhWBpJlSBDAdpbBRCQIQ4OKV5jGAbmnqlkvUmI5clGQcEGiYABevhoFX1B26VQSSZkoRwHSUwkYlCECAi1eaxwC6palbLlFjOnJRknFAoGECXLwaBl5Rd+hWEUiaKUUA01EKG5UgAAEuXmkeA+iWpm65RI3pyEVJxgGBhglw8WoYeEXdoVtFIGmmFAFMRylsVIIABLh4pXkMoFuauuUSNaYjFyUZBwQaJsDFq2HgFXWHbhWBpJlSBDAdpbBRCQIQ4OKV5jGAbmnqlkvUmI5clGQcEGiYABevhoFX1B26VQSSZkoRwHSUwjYYlT4rIm+JyFcGY7iMEgIDQeD/EpH/bSBGyiBjJIDpiFGVSGIypuOnIrI8kngIIy4CfGOOSw+igUAKBDAdKajUpxgxHX0Cn0i3mI5EhCJMCEREANMRkRixhYLpiE2RuOLBdMSlB9FAIAUCmI4UVOpTjJiOPoFPpFtMRyJCESYEIiKA6YhIjNhCwXTEpkhc8WA64tKDaCCQAgFMRwoq9SlGTEefwCfSLaYjEaEIEwIREcB0RCRGbKFgOmJTJK54MB1x6UE0EEiBAKYjBZX6FCOmo0/gE+kW05GIUIQJgYgIYDoiEiO2UDAdsSkSVzyYjrj0IBoIpEAA05GCSn2KEdPRJ/CJdIvpSEQowoRARAQwHRGJEVsomI7YFIkrHkxHXHoQDQRSIIDpSEGlPsWI6egT+ES6xXQkIhRhQiAiApiOiMSILRRMR2yKxBUPpiMuPYgGAikQwHSkoFKfYsR09Al8It1iOhIRijAhEBEBTEdEYsQWCqYjNkXiigfTEZceRAOBFAhgOlJQqU8xYjr6BD6RbjEdiQhFmBCIiACmIyIxYgsF0xGbInHFg+mISw+igUAKBDAdKajUpxgxHX0Cn0i3mI5EhCJMCEREANMRkRixhYLpiE2RuOLBdMSlB9FAIAUCmI4UVOpTjL7pWCgi5/oUC93GRwDTEZ8mRASB2AlgOmJXqOH4visiYyLyRyLylyLyUxG5QkS2icgTInKviPx5wzHRXZwEMB1x6kJUEIiZAKYjZnX6ENuVIvJvIjIpImdFZKWI/PJCHGamY1kfYqLLOAlgOuLUhaggEDMBTEfM6vQptpdE5E4RGRKRqQtGY1pEHhWRp/oUE93GRwDTEZ8mRASB2AlgOmJXqA/x2dkOt+tfiMjyPsRCl/ESwHTEqw2RQSBWApiOWJXpc1xmtuMPROQzIjIjIg8zy9FnReLrHtMRnyZEBIHYCWA6YleoT/G5sx3McvRJhMi7xXRELhDhQSBCApiOCEWJJSQz23GHiDzELEcskkQVB6YjKjkIBgJJEMB0JCFTf4I0sx3Pichof7qn18gJYDoiF4jwIBAhAUxHBaKsGRoa2rRixYrRqamp1TMzM4sqaJMmaiAwPDw8vWzZso9OnDgxMTs7u1dEjtTQzaA0iekYFKUZJwSqI4Dp6IXl0qVLXzp37tztW7ZsWbBx48bL1q1bJ8uXc5NHL0zrrHvy5Ek5fPiw7N+//9Pdu3efX7hw4aunT5++u84+M24b05GxuAwNAjURwHSUBPu5kZGRH27YsOGq8fHxJRiNkhT7WM0YkLGxsTMHDhz4eHJy8msi8rM+hpNi15iOFFUjZgj0lwCmowz/kZGRn4yNja3dvn17merUiYjAjh07ZHx8/IPJyckvRBRWCqFgOlJQiRghEBcBTIdWD7OkMjo6umnPnj1LtHUpHyeBzZs3n5mYmNjLUotKH0yHCheFIQABEcF0KA+DNYsWLfrxsWPHhllSUZKLuLhZalm1atXM9PT0F9lcGiwUpiMYFQUhAIELBDAdmkNhaGhox9atW7+9c+fOyzT1KBs/gW3btn26a9eup2ZnZ1kzC5ML0xHGiVIQgMBFApgOzdFg9nJMTEysXb9+vaYaZRMgcOjQIRkdHWVvR7hWmI5wVpSEAAR+RQDToTkShoeHzx4/fnwRSysaammUNUssK1eunJ6ZmVmcRsR9jxLT0XcJCAACyRHAdCglO3/+vMm1fHIksGDBAjOs4v/4dCWA6eiKiAIQgIBHANOhPCQwHUpgKRXHdKjUwnSocFEYAhBgeUV/DGA69MySqYHpUEmF6VDhojAEIIDp0B8DmA49s2RqYDpUUmE6VLgoDAEIYDr0xwCmQ88smRqYDpVUmA4VLgpDAAKYDv0xgOnQM0umBqZDJRWmQ4WLwhCAAKZDfwxgOvTMkqmB6VBJhelQ4aIwBCCA6dAfA5gOPbNkamA6VFJhOlS4KAwBCGA69MeAynScPXtWHnjgAbnuuuvklltu0fcWUOO9996TJ554Ql5//XX55JNP5P7775fnnntO1qxZE1C7e5EjR45U3marXk38e/fuLcYxMjLSMTB3zN3Kdh/hxRKYDg0twXSocFEYAhDAdOiPgXmmw1zszefhhx+e15K5KJoL6B//8R/Ld77zHUxHF87G2Dz22GPy/PPPdzUcpilMh/7AraEGpqMGqDQJgcwJ8HAwpcDzTEe7i58xI1dffXVtsxtuzHVdgG0fTc10KHWopTgzHSqsmA4VLgpDAALMdOiPgXmmY3JysjAWZqbjmmuuKVozv7vvvvuKb+5XXXXVvOUVW/7gwYNF2bvuukueffZZ+fjjj+ctYdhlmU2bNhXttqu3ePHied/63eWVK664oojN9mX6W7dunbzxxhvi/83GYdrzP77pMD/ffPPNcvjw4aLo448/fslMj29YRkdHi7H65bu1ZczbI488MheSjfP999+fW1IyfzTjvOmmm+TFF18s4vLH47ZjGbRafsJ0qE4ITIcKF4UhAAFMh/4YuGRPh7/EYpdWjJkwH3dPhz8D8sorrxQXS38vhm86TJvm4xoQY0jMxTZ0T4cbZ6f2upmO/fv3y9q1a4s9I9Y0vPDCC3Omy61v/25MhzFmvknr1Ja/x8P8/M477xQmrZXpWL16dfE3n7npc9++fXLnnXcWfzMcjh49WpT1TRamQ3VCYDpUuCgMAQhgOvTHwCWmw9+P4BoLdyOpMRfGgFx55ZWXzAz4swm+6fDD9A1Et42k3TZpttubYvrttLzSbaNsq7rt+mrFyt2A2810uLNNnZa3Oi1HYTpUJwSmQ4WLwhCAAKZDfwxcYjpcg2BmAB566CF58skniw2R/kXZXyZ57bXXitmKENPhLzXYZY1uMx3tTEO79rrNdNgxvfzyy3NF7Ti61TV/N+bhww8/LIxXu7asQbPLS7Zep5mOTqbDMLr22mvnwrvhhhta3iWD6VCdEJgOFS4KQwACmA79MdDylll7If3qV78qb7/99txMRqeZANcMmDDcW139mQ5/SSB0pqPVnpNWSwyhMx12j4qdrellpuPBBx+cN/NT10yHMRz33ntvsZfFLAkx06E/6NvUwHRUhpKGIDAwBLh7RSl1S9Nhl1g++9nPivvt3L+Qmttozd/NXgLXdNiNnfbbuv1m/u677xZ7JVxTYNu0F/5OMx3tzESn9jrNVrTbGGv3l3Sb6XDH3K0tdznFtGuWpsyn3Z6OdjMdvsnotNTETIfqbMB0qHBRGAIQYKZDfwy0NB3WCPz/7Z1djFVVlseXVYKXjytUuIZYECNqKHse+DCheCiMk4JAJCaCvBjGBpuOiQhEwozT9EiLTNORHmcMypcJaVvsNA8mCCYGA4FyjPBAkbTAw7QQDYQgxnhJFV4+rmCVk327Dzncrqp71tn3Y5+zf/ViQ62191q/tcj+9z7n7H3u3Lnbtu3LdwLKH2kEosKEEX4E8NJLL8n3339/S8CEv/IwX1+MHz++9LjALLSDiQ4zZvgrE/Pn4MuN8O/Kx6skHMJxBr5LliwZ8PPg8q9TzNiD5Vw+VvjRi/nd3LlzJZvN/kPOZszyL4gGeq8meBxkmPT29vJ4Rd/75R6IDnuGjAAB3wiw06GsuOpEUuXYqTOv5hkf9Tj7hJ0OVQsiOlS4MIYABNjp0PcAokPBzEZ0VDrDQxFGZFNER2RUxhDRocKFMQQggOjQ9wCiQ88sMR6IDlWpEB0qXBhDAAKIDn0PIDr0zBLjgehQlQrRocKFMQQggOjQ9wCiQ88sMR6IDlWpEB0qXBhDAAKIDn0POCM6hjpbQ58WHoYAokPVB4gOFS6MIQABRIe+BxAdemaJ8UB0qEqF6FDhwhgCEEB06HsA0aFnlhgPRIeqVIgOFS6MIQABRIe+B26JjvJ7Q8JXvIcPAQv/ffAJ6WBXvQ8UTvgwrvCdIUM9XgmOPx/suvcod72YkzufeeaZUkjBVfHXrl37h4O4yscayK/8Ntcgz/K7aMzfB/e4BCeS3n333fL666+L4fjAAw/cumk2ONX11Vdfla1bt5buujFMCoVC6WA1cxhY+TX2lWJDdKj+QSA6VLgwhgAEEB36HiiJjvKjyM0w5pp2c2qmuUY9uJjM/H34ZtlKV72Xh1N+b0j4srQoomOw694riY7yo8LDB3OFYzDxhv9cfuT4UNfIlzMsP701EAjhE0zDR6MPJjr27Nlz656VwW6mDQRK+RX3iA7VPwhEhwoXxhCAAKJD3wMl0THYoVcDXYA21N0omivsTajBHS/m/9lv3769FL05Cr38Z6CL3sLCYSjR8cgjj5SEUvhaeZODuTfG3Hty/vx5CXYXRo4cWbIN7pspF0JDHQ42WAzBvOUCIxA4gaAbTHSEmYTneP/992/jNVBsiA7VPwhEhwoXxhCAAKJD3wO3REd4Wz8YZiARERYK+Xx+yNtky8Mpv6vF/D54xFJr0RG+ut7MGzxiCXZvjNAwF9WVP94wj0DMXSjmx4iflStXlmzMDa/hnzAXs/Mw0E5HWGDEER3h+Y3oqBQbokP1DwLRocKFMQQggOjQ90DddzrCC2U43CiPVwa7eTXKTkf4ttxyTMEjFROb+QlEBjsd+oZKsAeiI8HFI3QINIgAF74pwQ/4Tof5f+nBtfXmnQ7zv83CHDx+CK6hr/QuRXks5e90mN/v3LlTghdEzZ/jPF4pf/wSvKwavD9R/k5HOD/zWCPYQTCPmjZs2HBrF6M83ijvdASPU4L3XcwNu0bEDPR4ZaB3RszfGdvgPY0wk7AIihIbOx2qfw2IDhUujCEAAXY69D1w6+uV8i8vNF+vvPXWW6WFutI7HSa88Ncr5s/BPDY7HeXjmoXefPER3t0If+lh7IOvSgJkgwmKSl+IhJGHL3V7+umnS78yj2M6OjoGFB3m9+FHTuYR0CeffHLb1yuvvPLKrSmCR0LB1zOVYkN0qP5BIDpUuDCGAAQQHfoecOacDn3obnsM9f5H1MhtT2lFdEQlXbJDdKhwYQwBCCA69D2A6NAzG9SjfDcl/HlsnGkQHXGoxfZBdMRGhyMEvCXAOx3K0iM6lMCSZM5Oh6paiA4VLowhAAF2OvQ9gOjQM0uMB6JDVSpEhwoXxhCAAKJD3wOIDj2zxHggOlSlQnSocGEMAQggOvQ9gOjQM0uMB6JDVSpEhwoXxhCAAKJD3wOIDj2zxHggOlSlQnSocGEMAQggOvQ9gOjQM0uMB6JDVSpEhwoXxhCAAKJD3wOIDj2zxHggOlSlQnSocGEMAQggOvQ9gOjQM0uMB6JDVSpEhwoXxhCAAKJD2QPDhw+//u2332bGjh2r9MTcdQK9vb0yfvz44o0bN0a4Hqsj8SE6HCkEYUAgQQQ4HExTrHHjxv11z549Dz/22GMaN2wTQODTTz+VRYsWfXHp0qWfJSBcF0JEdLhQBWKAQLIIIDo09Wpqatr44osv/vsbb7wxTOOHrfsE1qxZc/PNN9/8r/7+/nXuR+tEhIgOJ8pAEBBIFAFEh7JcbZlM5tQ333wznEcsSnIOm5tHK/fee++NYrE4RUROOxyqS6EhOlyqBrFAIBkEEB3aOo0ePfrtRYsW/fzdd98dqfXF3k0Czz777LU9e/b86cqVK8+7GaGTUSE6nCwLQUHAaQKIjjjlMe92rF69+uF169iJj8PPJZ+NGzfK5s2beZdDXxREh54ZHhDwnQCiI2YHtI4bN+7wE088cd/mzZtH8qglJsUGuplHKqtXr7720Ucfnb906dJsEbnYwHCSODWiI4lVI2YINJYAosOGv3nU8uP3O72UAAAR8klEQVSPP/5i+fLldzz55JPDpk6dKggQG6K19TVC4+TJk/Lhhx/e3LFjx0933nnnH3mkEps5oiM2Ohwh4C0BREcVSt/W1NT085aWlkWFQuH+GzduZKowJkPUgMDw4cOL2Wz2XE9Pz57+/v4/8dKoFWREhxU+nCHgJQFEh5dlj540C0t0Vr5Z0hu+VZx8IWBPANFhzzDVI7CwpLq8VsnRG1b4cIaAlwQQHV6WPXrSLCzRWflmSW/4VnHyhYA9AUSHPcNUj8DCkuryWiVHb1jhwxkCXhJAdHhZ9uhJs7BEZ+WbJb3hW8XJFwL2BBAd9gxTPQILS6rLa5UcvWGFD2cIeEkA0eFl2aMnzcISnZVvlvSGbxUnXwjYE0B02DNM9QgsLKkur1Vy9IYVPpwh4CUBRIeXZY+eNAtLdFa+WdIbvlWcfCFgTwDRYc8w1SOwsKS6vFbJ0RtW+HCGgJcEEB1elj160iws0Vn5Zklv+FZx8oWAPQFEhz3DVI/AwpLq8lolR29Y4cMZAl4SQHR4WfboSbOwRGflmyW94VvFyRcC9gQQHfYMUz0CC0uqy2uVHL1hhQ9nCHhJANHhZdmjJ83CEp2Vb5b0hm8VJ18I2BNAdNgzTPUILCypLq9VcvSGFT6cIeAlAUSHl2WPnjQLS3RWvlnSG75VnHwhYE8A0WHPMNUjsLCkurxWydEbVvhwhoCXBBAdXpY9etIsLNFZ+WZJb/hWcfKFgD0BRIc9w1SPwMKS6vJaJUdvWOHDGQJeEkB0eFn26EmzsERn5ZslveFbxckXAvYEEB32DFM9AgtLqstrlRy9YYUPZwh4SQDR4WXZoyfNwhKdlW+W9IZvFSdfCNgTQHTYM0z1CCwsqS6vVXL0hhU+nCHgJQFEh5dlj540C0t0Vr5Z0hu+VZx8IWBPANFhzzDVI7CwpLq8VsnRG1b4cIaAlwQQHV6WPXrSLCzRWflmSW/4VnHyhYA9AUSHPcNUj8DCkuryWiVHb1jhwxkCXhJAdHhZ9uhJs7BEZ+WbJb3hW8XJFwL2BBAd9gxTPQILS6rLa5UcvWGFD2cIeEkA0eFl2aMnzcISnZVvlvSGbxUnXwjYE0B02DNM9QgsLKkur1Vy9IYVPpwh4CUBRIeXZY+eNAtLdFa+WdIbvlWcfCFgTwDRYc8w1SOwsKS6vFbJ0RtW+HCGgJcEEB1elj160iws0Vn5Zklv+FZx8oWAPQFEhz3DVI/AwpLq8lolR29Y4cMZAl4SQHR4WfboSbOwRGflmyW94VvFyRcC9gQQHfYMUz0CC0uqy2uVHL1hhQ9nCHhJANHhZdmjJ83CEp2Vb5b0hm8VJ18I2BNAdNgzTPUILCypLq9VcvSGFT6cIeAlAUSHl2WPnjQLS3RWvlnSG75VnHwhYE8A0WHPMFUj/KuI/KeI/IeIvCkiwcLyooi8JiK/EZH/SVXGJBOXAKIjLjn8IOAvAUSHv7UfMPOsiFwSkSsickNExovItyIyXERGi8g4ESnADAIhQQoMCEAAAlEJIDqikvLIzuxo/JuI3Pl3gWGEyI8i8t8i8muPOJDq0ATY6aBDIAABLQFEh5aYB/ZGZHwnIneFcv1BRO5hl8OD6kdPEdERnRWWEIDA3wggOuiEAQmY3Q7zfscwEbn59/c42OWgWcIEEB30AwQgoCWA6NAS88Q+vNvBLocnRVemiehQAsMcAhBgp4MeGJxA8G4H73LQJQMRQHTQFxCAgJYAOx1aYh7Zm92OP4rIL3iXw6OqR08V0RGdFZYQgMDfCCA66IQSgftEZE5LS8vspqam6cVisbVYLI7u6+trbm5u7stkMlcymczF/v7+z3t6eg6LyCEROQ87rwkgOrwuP8lDIBYBREcsbOlxWpbL5VZdv3794blz596cM2dOdsqUKTJp0iTJ5XJy1113yQ8//CD5fF7Onj0rp06dkkOHDhUOHjw4bMSIEV/k8/ktIvJOenCQiYIAokMBC1MIQICdDp974PlsNvvbGTNmDFu1atWYBQsWqFns27dPtmzZcvn48eM3C4WCOan0bfUgOCSZAKIjydUjdgg0hgA7HY3h3rBZp+dyuXfa2tru37Rp09hZs2ZZB3LkyBFZu3Zt7+nTp8/l8/llIvK59aAMkAQCiI4kVIkYIeAWAUSHW/WoaTRGEPxh27Zt8sILL1R9ou3bt8uKFSvMuL/kkUvV8bo4IKLDxaoQEwTcJoDocLs+VYvu5dbW1l/t3bs3297eXrVBywfq7u6WhQsXFi5evPh7EfldzSZiYBcIIDpcqAIxQCBZBBAdyapXrGhfnjx58ktdXV1jJkyYEGsAjdPXX38tnZ2dl8+cOfM6wkNDLnG2iI7ElYyAIdBwAoiOhpegtgEsa21t3dzd3Z2th+AIUjHCo7293ex4rOZRS20L3MDRER0NhM/UEEgoAURHQgsXJezpIvKXY8eOGQEQxb6qNuZRy8yZM82Yj/ByaVXRujIYosOVShAHBJJDANGRnFrpIs3lcp9v2LBhWi1eGo0aiXm5dP369Sfy+bwRQPykiwCiI131JBsI1IMAoqMelBswx/MdHR2vHTlyZKxm7qNHj8ru3bvlwIEDcuHChdLBYOaAsIkTJ8q8efNk8eLF0tHRoRlSZs2a1Xv06FFzQy3neKjIOW+M6HC+RAQIAecIIDqcK0kVAspms9/t378/F/UcjpMnT8rKlSvF/LdQKAwaQTablalTp8rWrVtL/43yY87xmD9/fr5QKNwTxR6bxBBAdCSmVAQKAWcIIDqcKUX1AlnW2dn5xuHDh8dEGfK9996TpUuXRjG9zWbXrl2yZMmSSH6zZ8++3NXVtYaXSiPhSooRoiMplSJOCLhDANHhTi2qE4l5l2Pnzp3TohxtbgTH8uXL5dq1a+rJR44cKTt27IgkPMyR6c899xzvdqgpO+2A6HC6PAQHAScJIDqcLEv8oO4bNWrU6StXrmQqDWEepUybNq2SWcXfnzhxItKjltGjRxevXr3axu20FZEmxQDRkZRKEScE3CGA6HCnFlWJZNnChQs3f/DBB9lKoz366KNi3rew/THvjXz22WcVh3nqqacKe/fu5dyOiqQSY4DoSEypCBQCzhBAdDhTiioE0tLS8ueNGzcurvSZrPlK5fHHHx/ypdGo4ZiXSz/++OOKX7WYz2fXrVu3u6en51+ijo2d0wQQHU6Xh+Ag4CQBRIeTZYkZ1Lhx4/5v3759P6v01Yq5mM2IgGr9GJFjLpIb6sfsqixYsOCvly5d+qdqzcs4DSWA6GgofiaHQCIJIDoSWbZBgh41apS5Yr7iHSsPPfSQfPXVV1VL/cEHH5Qvv/xyyPHM0ehtbW2Xr169qjo7pGpBMlC1CSA6qk2U8SCQfgKIjjTVuLm5+cerV682mwO9hvrJZDKlg7+q9WPmKxaLQw5n5hs1alRfX1/fndWal3EaSgDR0VD8TA6BRBJAdCSybIMH/dNPP5m1YOifO+64o5KJ+veKeas/uTpaHKpAANFRBYgMAQHPCCA60lRwdjrSVE3nc0F0OF8iAoSAcwQQHc6VxCIg3umwgIerlgCiQ0sMewhAANGRph7g65U0VdP5XBAdzpeIACHgHAFEh3MlsQiIczos4OGqJYDo0BLDHgIQQHSkrAc4kTRlBXU4HUSHw8UhNAg4SgDR4Whh4obF3StxyeGnJYDo0BLDHgIQQHSkrQe4ZTZtFXU2H0SHs6UhMAg4SwDR4Wxp4ge2rLOz843Dhw+PiTKEud5+6dKlUUxvs9m1a1eka+2N0+zZsy93dXWtEZF31BPh4CoBRIerlSEuCLhLANHhbm3iR5bNZr/bv39/rtIdLMEM5pr7lStXivlvoVAYdGJzudvUqVNl69atka6zNwOZO1fmz5+fLxQK98TPCE8HCSA6HCwKIUHAcQKIDscLFDe85zs6Ol47cuSI6p4Tc/vs7t275cCBA3LhwoXSUenmiPOJEyfKvHnzZPHixRVvky0PeNasWb1Hjx79tYi8HTcZ/JwkgOhwsiwEBQGnCSA6nC6PRXDm3Y4NGzZMq3TNvcUUFV3NTbbr168/kc/np1c0xiBpBBAdSasY8UKg8QQQHY2vQc0iMAv9X44dOybt7e01m2Swgbu7u2XmzJnm14+IyOd1D4AJa00A0VFrwowPgfQRQHSkr6a3ZbSstbV1c3d3d3bChAl1S9VcY9/e3l64ePHial4erRv2ek+E6Kg3ceaDQPIJIDqSX8OKGbw8efLkl7q6usbUQ3gYwdHZ2Xn5zJkzr4vI7ypGh0FSCSA6klo54oZA4wggOhrHvq4zv9za2vqrvXv3Zmv5qMU8Ulm4cKHZ4fg9gqOu9W3EZIiORlBnTggkmwCiI9n1U0W/TET+sG3bNqnFy6XmpdEVK1aYgH7JIxVVXZJqjOhIauWIGwKNI4DoaBz7hsw8PZfLvdPW1nb/pk2bxkY9x2OoSM05HGvXru09ffr0uXw+b4QNL402pLR1nxTRUXfkTAiBxBNAdCS+hPESeD6bzf52xowZw1atWjVmwYIF6lH27dsnW7ZsuXz8+PGbhULhN5zDoUaYdAdER9IrSPwQqD8BREf9mTs147JcLrfq+vXrD8+dO/fmnDlzslOmTJFJkyZJLpcrHQxmDgjL5/Ny9uxZOXXqlBw6dKhw8ODBYSNGjPgin89v4VGKU/WsZzCIjnrSZi4IpIMAoiMddbTO4j4RmdPS0jK7qalperFYbC0Wi6P7+vqam5ub+zKZzJVMJnOxv7//856ensMickhEzlvPygBJJoDoSHL1iB0CjSGA6GgMd2aFQOIJIDoSX0ISgEDdCSA66o6cCSGQDgKIjnTUkSwgUE8CiI560mYuCKSIAKIjRcUkFQjUiQCio06gmQYCaSOA6EhbRckHArUngOioPWNmgEAqCSA6UllWkoJATQkgOmqKl8EhkF4CiI701pbMIFArAoiOWpFlXAiknACiI+UFJj0I1IAAoqMGUBkSAj4QQHT4UGVyhEB1CSA6qsuT0SDgDQFEhzelJlEIVI0AoqNqKBkIAn4RQHT4VW+yhUA1CCA6qkGRMSDgIQFEh4dFJ2UIWBJAdFgCxB0CvhJAdPhaefKGQHwCiI747PCEgNcEEB1el5/kIRCLAKIjFjacIAABRAc9AAEIaAkgOrTEsIcABEoEEB00AgQgoCWA6NASwx4CEEB00AMQgEAsAoiOWNhwggAE2OmgByAAAS0BRIeWGPYQgAA7HfQABCAQiwCiIxY2nCAAAXY66AEIQEBLANGhJYY9BCDATgc9AAEIxCKA6IiFDScIQICdDnoAAhDQEkB0aIlhDwEIsNNBD0AAArEIIDpiYcMJAhBgp4MegAAEtAQQHVpi2EMAAux00AMQgEAsAoiOWNhwggAE2OmgByAAAS0BRIeWGPYQgAA7HfQABCAQiwCiIxY2nCAAAXY66AEIQEBLANGhJYY9BCDATgc9AAEIxCKA6IiFDScIQICdDnoAAhDQEkB0aIlhDwEIsNNBD0AAArEIIDpiYcMJAhBgp4MegAAEtAQQHVpi2EMAAux00AMQgEAsAoiOWNhwggAE2OmgByAAAS0BRIeWGPYQgAA7HfQABCAQiwCiIxY2nCAAAXY66AEIQEBLANGhJYY9BCDATgc9AAEIxCKA6IiFDScIQICdDnoAAhDQEkB0aIlhDwEIsNNBD0AAArEIIDpiYcMJAhBgp4MegAAEtAQQHVpi2EMAAux00AMQgEAsAoiOWNhwggAE2OmgByAAAS0BRIeWGPYQgAA7HfQABCAQiwCiIxY2nCAAAXY66AEIQEBLANGhJYY9BCDATgc9AAEIxCKA6IiFDScIQICdDnoAAhDQEkB0aIlhDwEIsNNBD0AAArEIIDpiYcMJAhBgp4MegAAEtAQQHVpi2EMAAux00AMQgEAsAoiOWNhwggAE2OmgByAAAS0BRIeWGPYQgAA7HfQABCAQiwCiIxY2nCAAAXY66AEIQEBLANGhJYY9BCDATgc9AAEIxCKA6IiFDScIQICdDnoAAhDQEkB0aIlhDwEIsNNBD0AAArEIIDpiYcMJAhBgp4MegAAEtAQQHVpi2EMAAux00AMQgEAsAiXR8YmI/HMsd5wgAAFfCfSKyFhfkydvCEAgFoH//X80FNJMnyernwAAAA5lWElmTU0AKgAAAAgAAAAAAAAA0lOTAAAAAElFTkSuQmCC;" vertex="1" parent="1">
          <mxGeometry x="40" y="20" width="541" height="851" as="geometry" />
        </mxCell>
      </root>
    </mxGraphModel>
  </diagram>
</mxfile>
